<?xml version="1.0" encoding="utf-8"?>
<!-- Generator: Adobe Illustrator 22.1.0, SVG Export Plug-In . SVG Version: 6.00 Build 0)  -->
<svg version="1.1" id="Слой_1" xmlns="http://www.w3.org/2000/svg" xmlns:xlink="http://www.w3.org/1999/xlink" x="0px" y="0px"
	 viewBox="0 0 75.1 75.1" style="enable-background:new 0 0 75.1 75.1;" xml:space="preserve">
<style type="text/css">
	.st0{fill:#FFFFFF;}
</style>
<g>
	<g>
		<path class="st0" d="M65.3,53.1l-7,10.1l-4.9-4.1c-0.5-0.4-1.3-0.4-1.8,0.2c-0.4,0.5-0.4,1.3,0.2,1.8l6,4.9
			c0.2,0.2,0.5,0.3,0.8,0.3c0.1,0,0.1,0,0.2,0c0.3,0,0.7-0.2,0.9-0.5l7.8-11.2c0.4-0.6,0.3-1.3-0.3-1.7
			C66.4,52.4,65.7,52.5,65.3,53.1z M38.8,32.6V19.9c0-0.7-0.6-1.3-1.3-1.3c-0.7,0-1.3,0.6-1.3,1.3v12.7c-1.8,0.5-3.2,1.9-3.6,3.7
			h-8.9c-0.7,0-1.3,0.6-1.3,1.3c0,0.7,0.6,1.3,1.3,1.3h9c0.6,2.1,2.5,3.6,4.8,3.6c2.8,0,5-2.2,5-5C42.5,35.1,40.9,33.1,38.8,32.6z
			 M37.5,39.9c-1.4,0-2.5-1.1-2.5-2.5c0-1.4,1.1-2.5,2.5-2.5S40,36,40,37.4C40,38.8,38.9,39.9,37.5,39.9z M37.5,12.4
			c0.7,0,1.3-0.6,1.3-1.3V9.9c0-0.7-0.6-1.3-1.3-1.3c-0.7,0-1.3,0.6-1.3,1.3v1.3C36.3,11.8,36.8,12.4,37.5,12.4z M37.5,62.4
			c-0.7,0-1.3,0.6-1.3,1.3v1.3c0,0.7,0.6,1.3,1.3,1.3c0.7,0,1.3-0.6,1.3-1.3v-1.3C38.8,63,38.2,62.4,37.5,62.4z M63.8,38.6h1.3
			c0.7,0,1.3-0.6,1.3-1.3c0-0.7-0.6-1.3-1.3-1.3h-1.3c-0.7,0-1.3,0.6-1.3,1.3C62.6,38.1,63.1,38.6,63.8,38.6z M11.3,36.1H10
			c-0.7,0-1.3,0.6-1.3,1.3c0,0.7,0.6,1.3,1.3,1.3h1.3c0.7,0,1.3-0.6,1.3-1.3C12.5,36.7,11.9,36.1,11.3,36.1z M56.1,17l-0.9,0.9
			c-0.5,0.5-0.5,1.3,0,1.8c0.2,0.2,0.6,0.4,0.9,0.4c0.3,0,0.6-0.1,0.9-0.4l0.9-0.9c0.5-0.5,0.5-1.3,0-1.8
			C57.4,16.5,56.6,16.5,56.1,17z M18.1,55.1L17.2,56c-0.5,0.5-0.5,1.3,0,1.8c0.2,0.2,0.6,0.4,0.9,0.4c0.3,0,0.6-0.1,0.9-0.4l0.9-0.9
			c0.5-0.5,0.5-1.3,0-1.8C19.3,54.6,18.6,54.6,18.1,55.1z M19,17c-0.5-0.5-1.3-0.5-1.8,0c-0.5,0.5-0.5,1.3,0,1.8l0.9,0.9
			c0.2,0.2,0.6,0.4,0.9,0.4c0.3,0,0.6-0.1,0.9-0.4c0.5-0.5,0.5-1.3,0-1.8L19,17z M75.1,37.5C75.1,16.8,58.2,0,37.5,0S0,16.8,0,37.5
			c0,20.7,16.8,37.5,37.5,37.5c4.4,0,8.8-0.8,12.9-2.3c2.4,1.5,5.3,2.3,8.3,2.3c9,0,16.3-7.3,16.3-16.3c0-3-0.9-5.9-2.3-8.3
			C74.3,46.3,75.1,42,75.1,37.5z M58.8,72.6c-2.8,0-5.4-0.8-7.5-2.3c-0.5-0.3-0.9-0.6-1.3-1c-0.1-0.1-0.1-0.1-0.2-0.2
			c-0.3-0.3-0.6-0.6-0.9-0.9c-0.1-0.1-0.2-0.3-0.4-0.4c-0.2-0.3-0.4-0.5-0.6-0.8c-0.1-0.1-0.2-0.3-0.3-0.4c-0.3-0.4-0.5-0.7-0.7-1.1
			c-0.1-0.1-0.1-0.2-0.2-0.3c-0.2-0.4-0.4-0.8-0.6-1.2c-0.1-0.2-0.1-0.3-0.2-0.5c-0.1-0.3-0.2-0.7-0.3-1c0-0.2-0.1-0.4-0.1-0.5
			c-0.1-0.4-0.2-0.7-0.2-1.1c0-0.2-0.1-0.3-0.1-0.5c-0.1-0.5-0.1-1.1-0.1-1.6C45,51.2,51.2,45,58.8,45c0.5,0,1.1,0,1.6,0.1
			c0.2,0,0.3,0,0.5,0.1c0.4,0.1,0.7,0.1,1.1,0.2c0.2,0,0.4,0.1,0.5,0.1c0.3,0.1,0.7,0.2,1,0.3c0.2,0.1,0.3,0.1,0.5,0.2
			c0.4,0.2,0.8,0.4,1.2,0.6c0.1,0.1,0.2,0.1,0.3,0.2c0.4,0.2,0.8,0.5,1.1,0.7c0.2,0.1,0.3,0.2,0.4,0.3c0.3,0.2,0.5,0.4,0.8,0.6
			c0.1,0.1,0.3,0.2,0.4,0.4c0.3,0.3,0.6,0.6,0.9,0.9c0.1,0.1,0.1,0.1,0.2,0.2c0.3,0.4,0.7,0.8,1,1.3c1.4,2.2,2.3,4.8,2.3,7.5
			C72.6,66.4,66.4,72.6,58.8,72.6z M71,48c-0.1-0.1-0.2-0.2-0.3-0.3c-0.2-0.2-0.4-0.4-0.6-0.6c-0.2-0.2-0.4-0.4-0.6-0.5
			c-0.2-0.2-0.4-0.3-0.6-0.5c-0.2-0.2-0.5-0.4-0.7-0.5c-0.2-0.1-0.4-0.3-0.6-0.4c-0.2-0.2-0.5-0.3-0.8-0.5c-0.2-0.1-0.5-0.2-0.7-0.4
			c-0.3-0.1-0.5-0.3-0.8-0.4c-0.3-0.1-0.5-0.2-0.8-0.3c-0.2-0.1-0.5-0.2-0.7-0.3c-0.3-0.1-0.6-0.2-0.9-0.3c-0.2-0.1-0.4-0.1-0.7-0.2
			c-0.4-0.1-0.7-0.1-1.1-0.2c-0.2,0-0.4-0.1-0.5-0.1c-0.6-0.1-1.1-0.1-1.7-0.1c-9,0-16.3,7.3-16.3,16.3c0,0.6,0,1.1,0.1,1.7
			c0,0.2,0.1,0.4,0.1,0.5c0.1,0.4,0.1,0.8,0.2,1.1c0,0.2,0.1,0.4,0.2,0.7c0.1,0.3,0.2,0.6,0.3,0.9c0.1,0.3,0.2,0.5,0.3,0.7
			c0.1,0.3,0.2,0.5,0.3,0.8c0.1,0.3,0.2,0.5,0.4,0.8c0.1,0.2,0.2,0.5,0.3,0.7c0.1,0.3,0.3,0.5,0.5,0.8c0.1,0.2,0.3,0.4,0.4,0.6
			c0.2,0.2,0.3,0.5,0.5,0.7c0.2,0.2,0.3,0.4,0.5,0.6c0.2,0.2,0.4,0.4,0.6,0.6c0.2,0.2,0.4,0.4,0.6,0.6c0.1,0.1,0.2,0.2,0.3,0.3
			c-3.4,1.1-6.9,1.6-10.5,1.6c-19.3,0-35-15.7-35-35c0-19.3,15.7-35,35-35c19.3,0,35,15.7,35,35C72.6,41.1,72,44.6,71,48z"/>
	</g>
</g>
</svg>
