<?xml version="1.0" encoding="utf-8"?>
<!-- Generator: Adobe Illustrator 22.1.0, SVG Export Plug-In . SVG Version: 6.00 Build 0)  -->
<svg version="1.1" id="Слой_1" xmlns="http://www.w3.org/2000/svg" xmlns:xlink="http://www.w3.org/1999/xlink" x="0px" y="0px"
	 viewBox="0 0 50.2 50" style="enable-background:new 0 0 50.2 50;" xml:space="preserve">
<style type="text/css">
	.st0{fill:#FFFFFF;}
</style>
<path class="st0" d="M36.7,0H13.5C6.1,0,0,6,0,13.5v23C0,44,6.1,50,13.5,50h11.9V31.8h-3.6v-6.1h3.6c0,0,0-4.1,0-5.1
	c0-0.9-0.1-7.1,7.8-7.1c1.1,0,3.4,0,5.6,0c0,2.7,0,5.6,0,6.4c-1.5,0-3.3,0-4.1,0c-0.8,0-1.6,0.8-1.6,1.5c0,0.6,0,4.2,0,4.2
	s5.1,0,5.7,0c-0.2,3.2-0.7,6.1-0.7,6.1h-5V50h3.6c7.5,0,13.5-6,13.5-13.5v-23C50.2,6,44.2,0,36.7,0z"/>
</svg>
