<?xml version="1.0" encoding="utf-8"?>
<!-- Generator: Adobe Illustrator 22.1.0, SVG Export Plug-In . SVG Version: 6.00 Build 0)  -->
<svg version="1.1" id="Слой_1" xmlns="http://www.w3.org/2000/svg" xmlns:xlink="http://www.w3.org/1999/xlink" x="0px" y="0px"
	 viewBox="0 0 20.5 24" style="enable-background:new 0 0 20.5 24;" xml:space="preserve">
<style type="text/css">
	.st0{fill:#121920;}
</style>
<g>
	<g>
		<path class="st0" d="M10.2,12.9h0.2c1.5,0,2.6-0.5,3.5-1.5c1.9-2.2,1.6-5.9,1.6-6.2C15.3,2.6,14,1.3,13,0.7
			C12.2,0.3,11.3,0,10.3,0h-0.1C9.7,0,8.6,0.1,7.5,0.7c-1,0.6-2.3,1.9-2.4,4.5c0,0.4-0.4,4.1,1.6,6.2C7.5,12.4,8.7,12.9,10.2,12.9z
			 M6.4,5.3C6.4,5.3,6.4,5.3,6.4,5.3c0.2-3.6,2.7-4,3.8-4h0.1c1.3,0,3.6,0.6,3.8,3.9c0,0,0,0,0,0c0,0,0.4,3.4-1.2,5.2
			c-0.6,0.7-1.5,1.1-2.6,1.1h0c-1.1,0-1.9-0.4-2.6-1.1C6.1,8.8,6.4,5.4,6.4,5.3z M20.5,19.1L20.5,19.1c0-0.1,0-0.1,0-0.1
			c0-1-0.1-3.3-2.3-4c0,0,0,0,0,0C15.9,14.3,14,13,14,13c-0.3-0.2-0.7-0.1-0.9,0.2c-0.2,0.3-0.1,0.7,0.2,0.9
			c0.1,0.1,2.1,1.4,4.6,2.1c1.2,0.4,1.3,1.6,1.3,2.8c0,0,0,0.1,0,0.1c0,0.4,0,1.1-0.1,1.5c-0.8,0.5-4,2-8.8,2c-4.8,0-8-1.6-8.8-2
			c-0.1-0.4-0.1-1.1-0.1-1.5c0,0,0-0.1,0-0.1c0-1.1,0.2-2.4,1.3-2.8c2.5-0.6,4.5-2,4.6-2.1c0.3-0.2,0.4-0.6,0.2-0.9
			c-0.2-0.3-0.6-0.4-0.9-0.2c0,0-1.9,1.3-4.1,1.9c0,0,0,0,0,0c-2.2,0.7-2.2,3-2.3,4C0,19,0,19,0,19v0c0,0.3,0,1.6,0.3,2.3
			c0,0.1,0.1,0.2,0.3,0.3c0.1,0.1,3.7,2.4,9.7,2.4c6,0,9.6-2.3,9.7-2.4c0.1-0.1,0.2-0.2,0.3-0.3C20.5,20.7,20.5,19.3,20.5,19.1z"/>
	</g>
</g>
</svg>
