<?xml version="1.0" encoding="utf-8"?>
<!-- Generator: Adobe Illustrator 22.1.0, SVG Export Plug-In . SVG Version: 6.00 Build 0)  -->
<svg version="1.1" id="Слой_1" xmlns="http://www.w3.org/2000/svg" xmlns:xlink="http://www.w3.org/1999/xlink" x="0px" y="0px"
	 viewBox="0 0 40 40" style="enable-background:new 0 0 40 40;" xml:space="preserve">
<style type="text/css">
	.st0{fill:#FFFFFF;}
</style>
<path class="st0" d="M34.1,5.9C26.3-2,13.7-2,5.9,5.9C-1.7,13.4-1.9,25.4,5,33.3l0.2,0.2c-0.8,1.6-2.1,3.6-4.1,4.7
	c-0.7,0.3-0.5,1.3,0.2,1.5c2.3,0.3,5.5,0,8.5-2.3l0,0c7.7,4.5,17.7,3.5,24.3-3.1C42,26.3,42,13.7,34.1,5.9z M26.6,28.6
	c-0.4,0.4-0.9,0.9-1.3,1.3c-0.6,0.7-1.4,0.9-2.2,0.8c-1.3-0.1-2.4-0.5-3.6-1c-2.5-1.2-4.6-2.9-6.4-5c-1.3-1.6-2.4-3.3-3.1-5.2
	c-0.3-0.9-0.6-1.9-0.5-2.9c0-0.6,0.3-1.2,0.7-1.6c0.5-0.5,1-1,1.5-1.4c0.6-0.6,1.4-0.6,2.1,0c0.4,0.4,0.8,0.8,1.2,1.2
	c0.4,0.4,0.8,0.8,1.1,1.1c0.7,0.7,0.7,1.5,0,2.1c-0.5,0.5-0.9,1-1.4,1.4c-0.1,0.1-0.1,0.2-0.1,0.4c0.3,0.8,0.8,1.4,1.3,2.1
	c1,1.3,2.2,2.4,3.6,3.3c0.3,0.2,0.6,0.3,0.9,0.5c0.2,0.1,0.3,0.1,0.4-0.1c0.5-0.5,1-1,1.4-1.5c0.6-0.6,1.4-0.6,2.1,0
	c0.8,0.8,1.6,1.5,2.3,2.3C27.2,27.1,27.2,27.9,26.6,28.6z M19.2,15.6l0.2-1.8c1.7,0.2,3.3,1,4.5,2.3c1.2,1.2,1.9,2.6,2.2,4.3
	l-1.8,0.3c-0.2-1.3-0.8-2.4-1.7-3.3C21.8,16.4,20.5,15.8,19.2,15.6z M29.1,20.4c-0.4-2.3-1.5-4.4-3.2-6.1c-1.8-1.8-4-2.9-6.5-3.2
	l0.2-1.8c2.9,0.4,5.4,1.7,7.5,3.7c1.9,1.9,3.2,4.4,3.7,7.1L29.1,20.4z"/>
</svg>
