<?xml version="1.0" encoding="utf-8"?>
<!-- Generator: Adobe Illustrator 22.1.0, SVG Export Plug-In . SVG Version: 6.00 Build 0)  -->
<svg version="1.1" id="Слой_1" xmlns="http://www.w3.org/2000/svg" xmlns:xlink="http://www.w3.org/1999/xlink" x="0px" y="0px"
	 viewBox="0 0 50.2 50" style="enable-background:new 0 0 50.2 50;" xml:space="preserve">
<style type="text/css">
	.st0{fill:#FFFFFF;}
</style>
<g>
	<g>
		<path class="st0" d="M25.1,26.4c1,0,1.9-0.8,1.9-1.9c0-1-0.8-1.9-1.9-1.9c-1,0-1.9,0.8-1.9,1.9C23.3,25.5,24.1,26.4,25.1,26.4z
			 M36.7,0H13.5C6.1,0,0,6,0,13.5v23C0,44,6.1,50,13.5,50h23.2c7.5,0,13.5-6,13.5-13.5v-23C50.2,6,44.2,0,36.7,0z M36.8,31.3
			c0,3-2.3,5.3-5.2,5.3H19.2c-3.7,0-5.8-1.9-5.8-5.3V19.3c0-3.5,2.1-5.9,5.2-5.9H32c2.3,0,4.8,2.2,4.8,5.8V31.3z M31,24.5
			c0,3.3-2.7,5.9-5.9,5.9c-3.3,0-5.9-2.6-5.9-5.9c0-1,0.3-1.9,0.7-2.8h-5.5v9.7c0,3.6,2.6,4.3,4.8,4.3h12.3c2.4,0,4.2-1.9,4.2-4.4
			v-9.6h-5.5C30.8,22.5,31,23.5,31,24.5z M25.1,29.4c2.7,0,4.9-2.2,4.9-4.9c0-2.7-2.2-4.9-4.9-4.9c-2.7,0-4.9,2.2-4.9,4.9
			S22.4,29.4,25.1,29.4z M25.1,20.8c2.1,0,3.7,1.7,3.7,3.7c0,2.1-1.7,3.7-3.7,3.7c-2.1,0-3.7-1.7-3.7-3.7
			C21.4,22.5,23.1,20.8,25.1,20.8z M32,14.4H19.9c0,0.1,0,0.1,0,0.1v4.7c0,0.3-0.2,0.5-0.5,0.5c-0.3,0-0.5-0.2-0.5-0.5v-4.7
			c0,0,0,0,0-0.1h-0.3c-0.1,0-0.3,0-0.4,0c0,0,0,0.1,0,0.1v4.7c0,0.3-0.2,0.5-0.5,0.5c-0.3,0-0.5-0.2-0.5-0.5v-4.7
			c-0.2,0.1-0.4,0.2-0.6,0.3c0,0,0,0,0,0v4.4c0,0.3-0.2,0.5-0.5,0.5c-0.3,0-0.5-0.2-0.5-0.5v-3.6c-0.9,1-1.3,2.4-1.3,3.7v1.4h6.2v0
			c1.1-1.3,2.7-2.1,4.5-2.1c1.8,0,3.4,0.8,4.5,2h6.2v-1.5C35.8,16.2,33.8,14.4,32,14.4z M33.6,18.4c0,0.6-0.5,1.1-1.1,1.1h-1.6
			c-0.6,0-1.1-0.5-1.1-1.1v-1.6c0-0.6,0.5-1.1,1.1-1.1h1.6c0.6,0,1.1,0.5,1.1,1.1V18.4z"/>
	</g>
</g>
</svg>
