<?xml version="1.0" encoding="utf-8"?>
<!-- Generator: Adobe Illustrator 22.1.0, SVG Export Plug-In . SVG Version: 6.00 Build 0)  -->
<svg version="1.1" id="Слой_1" xmlns="http://www.w3.org/2000/svg" xmlns:xlink="http://www.w3.org/1999/xlink" x="0px" y="0px"
	 viewBox="0 0 40 40" style="enable-background:new 0 0 40 40;" xml:space="preserve">
<style type="text/css">
	.st0{fill:#FFFFFF;}
</style>
<path class="st0" d="M20,40c-1.8,0-3.6-0.2-5.3-0.7c-1.7-0.5-3.3-1.2-4.8-2c-1.5-0.9-2.8-1.9-4-3.1c-1.2-1.2-2.3-2.6-3.1-4
	s-1.5-3.1-2-4.8C0.2,23.6,0,21.8,0,20c0-1.8,0.2-3.6,0.7-5.3c0.5-1.7,1.2-3.3,2-4.8s1.9-2.8,3.1-4c1.2-1.2,2.6-2.3,4-3.1
	c1.5-0.9,3.1-1.5,4.8-2C16.4,0.2,18.2,0,20,0c2.7,0,5.3,0.5,7.8,1.6c2.4,1.1,4.6,2.5,6.4,4.3c1.8,1.8,3.2,3.9,4.3,6.4
	c1.1,2.4,1.6,5,1.6,7.8c0,1.8-0.2,3.6-0.7,5.3c-0.5,1.7-1.2,3.3-2,4.8c-0.9,1.5-1.9,2.8-3.1,4c-1.2,1.2-2.6,2.3-4,3.1
	c-1.5,0.9-3.1,1.5-4.8,2C23.6,39.8,21.8,40,20,40z M29.6,11.8h-19c-0.2,0-0.3,0.1-0.5,0.2c-0.1,0.1-0.2,0.3-0.2,0.5v2.1
	c0,0.1,0,0.2,0.1,0.2l10,5.7l0.1,0c0.1,0,0.1,0,0.1,0l9.6-5.7c0.1,0,0.1,0,0.1,0c0,0,0.1,0,0.1,0c0.1,0,0.2-0.1,0.2-0.2v-2
	c0-0.2-0.1-0.4-0.2-0.5C30,11.8,29.8,11.8,29.6,11.8z M16,20.3c0,0,0-0.1,0-0.1c0-0.1,0-0.1-0.1-0.1l-5.7-3.3c-0.1,0-0.1,0-0.2,0
	c-0.1,0-0.1,0-0.1,0.1v8.6c0,0.1,0,0.1,0.1,0.2h0.1c0.1,0,0.1,0,0.1,0L16,20.3z M23,20.9c0-0.1-0.1-0.1-0.2,0l-2.2,1.3
	c-0.3,0.2-0.5,0.2-0.8,0l-1.9-1.1c-0.1-0.1-0.1-0.1-0.2,0l-7.3,6.8c0,0,0,0.1,0,0.2c0,0,0,0.1,0.1,0.1c0.2,0.1,0.3,0.1,0.3,0.1h18.8
	c0.1,0,0.1,0,0.2-0.1c0-0.1,0-0.2,0-0.2L23,20.9z M30.2,16.6H30l-5.4,3.2c-0.1,0-0.1,0-0.1,0.1c0,0,0,0.1,0,0.1L30,26
	c0.1,0.1,0.1,0.1,0.1,0.1h0.1c0.1-0.1,0.1-0.1,0.1-0.2v-9.1C30.3,16.7,30.3,16.7,30.2,16.6z"/>
</svg>
