<?xml version="1.0" encoding="utf-8"?>
<!-- Generator: Adobe Illustrator 22.1.0, SVG Export Plug-In . SVG Version: 6.00 Build 0)  -->
<svg version="1.1" id="Слой_1" xmlns="http://www.w3.org/2000/svg" xmlns:xlink="http://www.w3.org/1999/xlink" x="0px" y="0px"
	 viewBox="0 0 50.2 50" style="enable-background:new 0 0 50.2 50;" xml:space="preserve">
<style type="text/css">
	.st0{fill:#FFFFFF;}
</style>
<path class="st0" d="M36.7,0H13.5C6.1,0,0,6,0,13.5v23C0,44,6.1,50,13.5,50h23.2c7.5,0,13.5-6,13.5-13.5v-23C50.2,6,44.2,0,36.7,0z
	 M37.3,19.6l0,0.7c0,7.5-5.7,16.2-16.3,16.2c-3.2,0-6.2-0.9-8.8-2.6c0.5,0,0.9,0.1,1.4,0.1c2.7,0,5.2-0.9,7.1-2.4
	c-2.5,0-4.6-1.7-5.3-4c0.4,0.1,0.7,0.1,1.1,0.1c0.5,0,1-0.1,1.5-0.2c-2.6-0.5-4.6-2.8-4.6-5.6v-0.1c0.8,0.4,1.7,0.7,2.6,0.7
	c-1.5-1-2.5-2.8-2.5-4.7c0-1,0.3-2,0.8-2.9c2.8,3.4,7,5.7,11.8,5.9c-0.1-0.4-0.1-0.8-0.1-1.3c0-3.1,2.6-5.7,5.7-5.7
	c1.6,0,3.1,0.7,4.2,1.8c1.3-0.3,2.5-0.7,3.6-1.4c-0.4,1.3-1.3,2.4-2.5,3.1c1.2-0.1,2.3-0.4,3.3-0.9C39.5,17.8,38.5,18.8,37.3,19.6z"
	/>
</svg>
