<?xml version="1.0" encoding="utf-8"?>
<!-- Generator: Adobe Illustrator 22.1.0, SVG Export Plug-In . SVG Version: 6.00 Build 0)  -->
<svg version="1.1" id="Слой_1" xmlns="http://www.w3.org/2000/svg" xmlns:xlink="http://www.w3.org/1999/xlink" x="0px" y="0px"
	 viewBox="0 0 112.2 76.6" style="enable-background:new 0 0 112.2 76.6;" xml:space="preserve">
<style type="text/css">
	.st0{fill:#FFFFFF;}
</style>
<g>
	<g>
		<path class="st0" d="M78.2,20.5c-0.8,0.6-0.9,1.7-0.3,2.5c3.4,4.4,5.1,9.7,5.1,15.2c0,13.9-11.2,25.1-25.1,25.1
			c-13.8,0-25.1-11.3-25.1-25.1s11.2-25.1,25.1-25.1c5.5,0,10.8,1.8,15.2,5.1c0.8,0.6,1.9,0.5,2.5-0.3c0.6-0.8,0.5-1.9-0.3-2.5
			c-5-3.9-11-5.9-17.4-5.9c-15.8,0-28.7,12.9-28.7,28.7C29.2,54.1,42.1,67,57.9,67c15.8,0,28.7-12.9,28.7-28.7
			c0-6.4-2-12.4-5.9-17.4C80.1,20.1,79,19.9,78.2,20.5z M57.9,0C36.8,0,19.7,17.2,19.7,38.3c0,21.1,17.1,38.3,38.2,38.3
			c21.1,0,38.2-17.2,38.2-38.3C96.1,17.2,79,0,57.9,0z M57.9,73c-19.1,0-34.6-15.6-34.6-34.7c0-19.1,15.5-34.7,34.6-34.7
			c19.1,0,34.6,15.6,34.6,34.7C92.5,57.4,77,73,57.9,73z M16.1,0c-1,0-1.8,0.8-1.8,1.8v15h-3.6v-15C10.7,0.8,9.9,0,9,0
			C8,0,7.2,0.8,7.2,1.8v15H3.6v-15c0-1-0.8-1.8-1.8-1.8C0.8,0,0,0.8,0,1.8v21.5c0,4.3,3.1,8,7.2,8.8v42.7c0,1,0.8,1.8,1.8,1.8
			c1,0,1.8-0.8,1.8-1.8V32.1c4.1-0.8,7.2-4.5,7.2-8.8V1.8C17.9,0.8,17.1,0,16.1,0z M14.3,23.3c0,3-2.4,5.4-5.4,5.4
			c-3,0-5.4-2.4-5.4-5.4v-3h10.7V23.3z M110.4,0c-4.9,0-9,4-9,9v32.9c0,1,0.8,1.8,1.8,1.8h5.4v31.1c0,1,0.8,1.8,1.8,1.8
			c1,0,1.8-0.8,1.8-1.8v-73C112.2,0.8,111.4,0,110.4,0z M108.6,40.1h-3.6V9c0-2.3,1.5-4.3,3.6-5.1V40.1z"/>
	</g>
</g>
</svg>
