<?xml version="1.0" encoding="utf-8"?>
<!-- Generator: Adobe Illustrator 22.1.0, SVG Export Plug-In . SVG Version: 6.00 Build 0)  -->
<svg version="1.1" id="Слой_1" xmlns="http://www.w3.org/2000/svg" xmlns:xlink="http://www.w3.org/1999/xlink" x="0px" y="0px"
	 viewBox="0 0 89.4 89.4" style="enable-background:new 0 0 89.4 89.4;" xml:space="preserve">
<style type="text/css">
	.st0{fill:#FFFFFF;}
</style>
<g>
	<g>
		<path class="st0" d="M76.3,13.1C67.9,4.7,56.7,0,44.7,0c-7.1,0-13.9,1.6-20.1,4.8c-4.7,2.4-9.1,5.7-12.7,9.6l0.8-4.6
			c0.1-0.8-0.4-1.5-1.2-1.7c-0.8-0.1-1.5,0.4-1.7,1.2l-1.5,9.3c-0.1,0.5,0.1,0.9,0.4,1.3c0.3,0.3,0.6,0.4,1,0.4c0.1,0,0.2,0,0.2,0
			l9.3-1.5c0.8-0.1,1.3-0.9,1.2-1.7c-0.1-0.8-0.9-1.3-1.7-1.2l-5,0.8c3.4-3.8,7.6-7,12.1-9.3c5.9-3,12.2-4.5,18.8-4.5
			c11.2,0,21.7,4.4,29.6,12.3c7.9,7.9,12.2,18.4,12.2,29.6c0,6.8-1.6,13.5-4.8,19.4c-0.4,0.7-0.1,1.6,0.6,2c0.2,0.1,0.4,0.2,0.7,0.2
			c0.5,0,1-0.3,1.3-0.8c3.3-6.4,5.1-13.5,5.1-20.8C89.4,32.8,84.8,21.5,76.3,13.1z M79.5,69.2l-9.3,1.5c-0.8,0.1-1.3,0.9-1.2,1.7
			c0.1,0.8,0.9,1.3,1.7,1.2l5-0.8c-7.9,8.8-19.1,13.7-31,13.7c-11.2,0-21.7-4.4-29.6-12.2C7.2,66.4,2.9,55.9,2.9,44.7
			c0-6.8,1.6-13.5,4.8-19.4c0.4-0.7,0.1-1.6-0.6-2c-0.7-0.4-1.6-0.1-2,0.6C1.8,30.3,0,37.5,0,44.7c0,11.9,4.7,23.2,13.1,31.6
			c8.4,8.4,19.7,13.1,31.6,13.1c12.6,0,24.4-5.2,32.8-14.3l-0.8,4.6c-0.1,0.8,0.4,1.5,1.2,1.7c0.1,0,0.2,0,0.2,0
			c0.7,0,1.3-0.5,1.4-1.2l1.5-9.3c0.1-0.5-0.1-0.9-0.4-1.3C80.4,69.3,80,69.2,79.5,69.2z M55.2,19.2c-0.3-0.4-0.7-0.6-1.2-0.6H38.5
			c-0.7,0-1.3,0.5-1.4,1.1l-6,26.9c-0.1,0.7,0,1.3,0.4,1.9c0.4,0.5,1.1,0.8,1.7,0.8h9.8l-2.9,24.7c-0.1,0.7,0.3,1.3,1,1.5
			c0.1,0,0.3,0.1,0.4,0.1c0.5,0,1-0.3,1.3-0.8l17.9-32.9c0.4-0.7,0.4-1.5,0-2.2c-0.4-0.7-1.1-1.1-1.9-1.1H48.4l7-18.1
			C55.5,20.1,55.5,19.6,55.2,19.2z M44.9,39.6c-0.2,0.4-0.1,0.9,0.2,1.3c0.3,0.4,0.7,0.6,1.2,0.6h11.5L43.9,66.8L46.2,48
			c0-0.4-0.1-0.8-0.4-1.1c-0.3-0.3-0.7-0.5-1.1-0.5H34.2l5.5-24.9h12.2L44.9,39.6z"/>
	</g>
</g>
</svg>
