<?xml version="1.0" encoding="utf-8"?>
<!-- Generator: Adobe Illustrator 22.1.0, SVG Export Plug-In . SVG Version: 6.00 Build 0)  -->
<svg version="1.1" id="Слой_1" xmlns="http://www.w3.org/2000/svg" xmlns:xlink="http://www.w3.org/1999/xlink" x="0px" y="0px"
	 viewBox="0 0 81.4 71.8" style="enable-background:new 0 0 81.4 71.8;" xml:space="preserve">
<style type="text/css">
	.st0{fill:#FFFFFF;}
</style>
<g>
	<g>
		<path class="st0" d="M80.5,34.2c-0.6-0.7-1.5-1-2.4-1h-0.3c1.2-2.1,1.9-4.5,1.9-6.9c0-5.5-3.3-10.5-8.3-12.7
			C71.4,6.1,65.3,0,57.8,0C50.2,0,44.1,6.1,44,13.6c-0.3-0.1-0.6-0.1-0.9-0.1c-1.2,0-2.4,0.6-3.1,1.6l-0.3,0.5
			c-0.3,0.4-0.8,0.5-1.3,0.3l-0.5-0.3c-1.1-0.5-2.4-0.5-3.5,0.2c-1.1,0.6-1.8,1.7-1.9,2.9l-0.1,0.6c0,0.2-0.1,0.5-0.2,0.8
			c-0.3-0.2-0.5-0.5-0.6-0.8l-0.1-0.6c-0.1-1.2-0.7-2.1-1.6-2.7l4.3-6.2c0.8-1.2,1.2-2.7,0.9-4.1c-0.3-1.5-1-2.7-2.2-3.6
			c-2.5-1.8-5.9-1.2-7.7,1.3l-7.9,11.3c-0.3,0.4-0.5,0.8-0.6,1.2c-0.1,0-0.3,0-0.4-0.1l-0.5-0.3c-1.1-0.5-2.4-0.5-3.5,0.2
			c-1.1,0.6-1.8,1.7-1.9,2.9l-0.1,0.6c0,0.5-0.4,0.9-0.9,0.9L9,20.3c-1.2,0.1-2.3,0.8-2.9,1.9c-0.6,1.1-0.7,2.4-0.2,3.5l0.2,0.5
			c0.2,0.4,0.1,1-0.3,1.3l-0.5,0.3c-1,0.7-1.6,1.9-1.6,3.1c0,0.8,0.3,1.6,0.8,2.2H3.3c-0.9,0-1.8,0.4-2.4,1
			c-0.6,0.7-0.9,1.6-0.9,2.5c0.8,12.1,8.5,18.2,19.7,23.5c1.3,0.6,2.3,1.6,2.9,2.8c0.6,1.2,0.5,2.7-0.3,4c-0.6,1-0.6,2.2,0,3.2
			c0.6,1,1.6,1.6,2.7,1.6h31.3c1.1,0,2.2-0.6,2.7-1.6c0.6-1,0.5-2.2-0.1-3.2c-0.8-1.3-0.9-2.8-0.3-4c0.6-1.2,1.7-2.2,2.9-2.8
			c11.2-5.4,18.9-11.5,19.7-23.5C81.5,35.8,81.2,34.9,80.5,34.2z M69,21.7c0.1-0.2,0.3-0.4,0.4-0.7c0.1-0.1,0.1-0.2,0.2-0.3
			c0.1-0.2,0.3-0.5,0.4-0.7c0-0.1,0.1-0.2,0.1-0.3c0.1-0.3,0.2-0.6,0.4-0.8c0-0.1,0-0.1,0.1-0.2c0.2-0.7,0.5-1.4,0.6-2.1
			c3.5,1.9,5.8,5.6,5.8,9.7c0,2.5-0.9,4.9-2.4,6.9h-7.2v-5.5c0-0.8-0.6-1.4-1.4-1.4c-0.8,0-1.4,0.6-1.4,1.4v5.5h-4.9
			c0.1-0.2,0.2-0.3,0.3-0.5c0,0,0,0,0,0c0.1-0.2,0.2-0.5,0.3-0.7c0-0.1,0-0.1,0-0.2c0.1-0.3,0.1-0.5,0.1-0.8c0-1.2-0.6-2.4-1.6-3.1
			l-0.3-0.2c0.1,0,0.2,0,0.3,0c0.2,0,0.3,0,0.5-0.1c0.3,0,0.5-0.1,0.8-0.1c0.2,0,0.3-0.1,0.5-0.1c0.3-0.1,0.6-0.1,0.8-0.2
			c0.1,0,0.3-0.1,0.4-0.1c0.4-0.1,0.8-0.3,1.2-0.4c0.1,0,0.2-0.1,0.3-0.1c0.3-0.1,0.5-0.3,0.8-0.4c0.1-0.1,0.3-0.2,0.4-0.2
			c0.2-0.1,0.4-0.2,0.6-0.4c0.2-0.1,0.3-0.2,0.4-0.3c0.2-0.1,0.4-0.3,0.5-0.4c0.1-0.1,0.3-0.2,0.4-0.4c0.2-0.1,0.3-0.3,0.5-0.4
			c0.1-0.1,0.3-0.3,0.4-0.4c0.2-0.2,0.3-0.3,0.4-0.5c0.3-0.3,0.5-0.6,0.8-1C68.9,21.9,69,21.8,69,21.7z M57.8,2.8
			c6.1,0,11,5,11,11.1c0,0.2,0,0.4,0,0.6c0,0,0,0,0,0c-0.1,1.5-0.4,2.8-1,4.1c0,0,0,0,0,0c-0.1,0.3-0.3,0.6-0.4,0.8
			c0,0,0,0.1-0.1,0.1c-0.1,0.2-0.3,0.5-0.5,0.7c0,0.1-0.1,0.1-0.1,0.2c-0.2,0.2-0.3,0.4-0.5,0.6c-0.1,0.1-0.1,0.1-0.2,0.2
			c-0.2,0.2-0.3,0.4-0.5,0.5c-0.1,0.1-0.1,0.1-0.2,0.2c-0.2,0.2-0.3,0.3-0.5,0.4c-0.1,0.1-0.2,0.2-0.3,0.2c-0.2,0.1-0.3,0.3-0.5,0.4
			c-0.1,0.1-0.2,0.1-0.3,0.2c-0.2,0.1-0.3,0.2-0.5,0.3c-0.1,0.1-0.2,0.1-0.4,0.2c-0.2,0.1-0.4,0.2-0.5,0.2C62,24,61.9,24,61.8,24.1
			c-0.2,0.1-0.4,0.1-0.5,0.2c-0.1,0.1-0.3,0.1-0.4,0.1c-0.2,0.1-0.4,0.1-0.5,0.1c-0.2,0-0.3,0.1-0.5,0.1c-0.2,0-0.3,0.1-0.5,0.1
			c-0.2,0-0.4,0.1-0.5,0.1c0,0-0.1,0-0.1,0v0c0,0,0,0,0-0.1c0-0.2,0.1-0.5,0.1-0.8c0-0.1,0-0.2,0-0.2c0-0.2,0-0.4-0.1-0.6
			c0-0.1,0-0.2-0.1-0.2c-0.1-0.3-0.2-0.5-0.3-0.8c-0.6-1.1-1.7-1.8-2.9-1.9l-0.6-0.1c-0.4,0-0.7-0.3-0.8-0.6l2.9-3
			c0.5-0.5,0.5-1.4,0-2c-0.5-0.5-1.4-0.5-1.9,0l-2,2c-0.3-0.4-0.6-0.7-1-0.9c-0.3-0.2-0.6-0.3-0.9-0.4c-0.1,0-0.2,0-0.3-0.1
			c-0.2,0-0.4-0.1-0.6-0.1c0,0-0.1,0-0.1,0c-0.2,0-0.3,0-0.5,0.1c-0.1,0-0.2,0-0.3,0c-0.3,0.1-0.6,0.1-0.8,0.3l-0.5,0.3
			C47.7,16,47.5,16,47.4,16c0,0,0,0,0,0c-0.1,0-0.3,0-0.4-0.1c-0.1-0.7-0.2-1.4-0.2-2.1C46.8,7.7,51.7,2.8,57.8,2.8z M35.3,19.6
			l0.1-0.6c0-0.3,0.2-0.6,0.5-0.8c0.3-0.2,0.6-0.2,0.9,0l0.5,0.3c1.6,0.8,3.6,0.2,4.7-1.3l0.3-0.5c0.4-0.6,1.3-0.5,1.7,0l0.3,0.5
			c0.7,1,1.8,1.6,3,1.6h0c0.2,0,0.3,0,0.5,0c0.1,0,0.2,0,0.2,0c0.1,0,0.2,0,0.3-0.1c0.2-0.1,0.4-0.1,0.6-0.2l0.5-0.3
			c0.3-0.1,0.6-0.1,0.9,0c0.3,0.2,0.5,0.5,0.5,0.8l0.1,0.6c0.2,1.8,1.6,3.3,3.4,3.4l0.6,0.1c0.3,0,0.6,0.2,0.8,0.5
			c0.2,0.3,0.2,0.6,0,0.9l-0.3,0.5c0,0,0,0,0,0.1c-0.5,1.1-0.4,2.4,0.2,3.4c0,0,0,0,0,0c0.1,0.1,0.2,0.2,0.2,0.4
			c0,0.1,0.1,0.1,0.2,0.2c0.1,0.1,0.1,0.2,0.2,0.2c0.1,0.1,0.3,0.3,0.5,0.4l0.5,0.3c0.3,0.2,0.4,0.5,0.4,0.8c0,0.3-0.2,0.6-0.4,0.8
			l-0.5,0.3c0,0,0,0,0,0c-0.2,0.1-0.3,0.3-0.5,0.4c-0.1,0.1-0.1,0.1-0.2,0.2c-0.1,0.1-0.2,0.2-0.2,0.3c0,0-0.1,0.1-0.1,0.1H37.8
			c0.1-0.2,0.2-0.3,0.3-0.5c0,0,0,0,0,0c0.1-0.2,0.2-0.5,0.3-0.7c0-0.1,0-0.1,0-0.2c0.1-0.3,0.1-0.5,0.1-0.8v0c0-0.2,0-0.3-0.1-0.5
			c0-0.1,0-0.3,0-0.4c-0.1-0.4-0.3-0.8-0.5-1.1c-0.3-0.4-0.6-0.8-1-1l-0.5-0.3c-0.4-0.3-0.5-0.8-0.3-1.3l0.3-0.5
			c0.1-0.3,0.2-0.5,0.3-0.8c0-0.1,0-0.2,0-0.3c0-0.2,0-0.4,0-0.6c0-0.1,0-0.2,0-0.3c0-0.2,0-0.4-0.1-0.5c0-0.1-0.1-0.2-0.1-0.3
			c0-0.1,0-0.2-0.1-0.3c0-0.1-0.1-0.1-0.1-0.1c0-0.1-0.1-0.1-0.1-0.2c-0.1-0.1-0.2-0.2-0.3-0.3c-0.1-0.1-0.1-0.2-0.2-0.3
			c-0.2-0.2-0.4-0.3-0.6-0.5C35.1,21,35,21,35,20.9C35.1,20.5,35.3,20.1,35.3,19.6z M19.3,17.4c0.1-0.4,0.2-0.7,0.4-1l7.9-11.3
			c0.9-1.2,2.6-1.5,3.8-0.7c0.6,0.4,1,1.1,1.1,1.8c0.1,0.7,0,1.5-0.5,2.1l-5.4,7.6c0,0,0,0,0,0l-2.6,3.6c-0.4,0.6-1.1,1-1.8,1.1
			c-0.7,0.1-1.5,0-2.1-0.5c0,0,0,0,0,0c-0.2-0.1-0.4-0.3-0.5-0.5c0,0-0.1-0.1-0.1-0.1c-0.1-0.2-0.2-0.4-0.3-0.6c0,0,0,0,0,0
			c-0.1-0.2-0.1-0.4-0.2-0.7c0-0.1,0-0.1,0-0.2C19.3,17.9,19.3,17.6,19.3,17.4z M7,30.1l0.5-0.3c1.5-1.1,2-3,1.2-4.7l-0.2-0.5
			c-0.1-0.3-0.1-0.6,0-0.9c0.2-0.3,0.5-0.5,0.8-0.5L9.9,23c1.8-0.2,3.2-1.6,3.4-3.4l0.1-0.6c0-0.3,0.2-0.6,0.5-0.8
			c0.3-0.2,0.6-0.2,0.9,0l0.5,0.3c0.4,0.2,0.8,0.3,1.2,0.3c0,0,0,0.1,0,0.1c0,0,0,0,0,0.1c0,0.2,0.1,0.3,0.1,0.5
			c0,0.2,0.1,0.4,0.1,0.5c0.1,0.2,0.2,0.4,0.3,0.6c0.1,0.1,0.1,0.3,0.2,0.4c0.1,0.2,0.3,0.4,0.5,0.6c0.1,0.1,0.1,0.2,0.2,0.3
			c0.3,0.3,0.5,0.5,0.8,0.7c0.3,0.2,0.6,0.3,0.9,0.5c0.1,0,0.2,0.1,0.3,0.1c0.2,0.1,0.4,0.2,0.6,0.2c0.1,0,0.2,0.1,0.3,0.1
			c0.2,0,0.5,0.1,0.7,0.1c0.1,0,0.2,0,0.3,0c0,0,0,0,0.1,0c0.3,0,0.6,0,1-0.1c1.5-0.3,2.7-1.1,3.6-2.3l2-2.9
			c0.2,0.2,0.4,0.4,0.4,0.7l0.1,0.6c0.2,1.8,1.6,3.3,3.4,3.4l0.6,0.1c0.1,0,0.2,0.1,0.4,0.1c0.1,0,0.1,0.1,0.2,0.1
			c0.1,0.1,0.1,0.1,0.2,0.2c0,0,0.1,0.1,0.1,0.1c0.1,0.1,0.1,0.3,0.1,0.4c0,0,0,0,0,0c0,0.2,0,0.3-0.1,0.5l-0.3,0.5
			c-0.3,0.6-0.4,1.3-0.3,1.9c0,0,0,0,0,0c0,0.2,0.1,0.4,0.1,0.6c0.2,0.8,0.7,1.6,1.5,2.1l0.3,0.2l0.2,0.1c0.3,0.2,0.4,0.5,0.4,0.8
			c0,0.2,0,0.3-0.1,0.5c0,0-0.1,0.1-0.1,0.1c-0.1,0.1-0.1,0.2-0.2,0.3l0,0l-0.5,0.3c-0.2,0.1-0.4,0.3-0.5,0.5c0,0.1-0.1,0.1-0.1,0.2
			c-0.1,0.1-0.2,0.2-0.3,0.4c0,0,0,0,0,0.1H8.5c-0.3-0.4-0.6-0.8-1-1.1L7,31.8c-0.3-0.2-0.4-0.5-0.4-0.8C6.5,30.6,6.7,30.3,7,30.1z
			 M60.5,57.7c-1.8,0.9-3.3,2.3-4.2,4c-1,2-0.9,4.6,0.4,6.7c0.1,0.2,0.1,0.3,0,0.4c0,0.1-0.1,0.2-0.3,0.2H25c-0.2,0-0.3-0.1-0.3-0.2
			c0-0.1-0.1-0.2,0-0.4c1.3-2.1,1.4-4.7,0.3-6.7c-0.9-1.8-2.4-3.2-4.2-4C10.2,52.6,3.5,47.3,2.8,36.5c0-0.2,0.1-0.3,0.1-0.4
			C3,36,3.1,35.9,3.3,35.9h74.9c0.2,0,0.3,0.1,0.4,0.2c0.1,0.1,0.2,0.2,0.1,0.4C77.9,47.3,71.2,52.6,60.5,57.7z M50.9,59.4h-12
			c-0.8,0-1.4,0.6-1.4,1.4c0,0.8,0.6,1.4,1.4,1.4h12c0.8,0,1.4-0.6,1.4-1.4C52.3,60,51.6,59.4,50.9,59.4z M30.3,62.2h4.7
			c0.8,0,1.4-0.6,1.4-1.4c0-0.8-0.6-1.4-1.4-1.4h-4.7c-0.8,0-1.4,0.6-1.4,1.4C28.9,61.5,29.5,62.2,30.3,62.2z M50.9,63.5H30.3
			c-0.8,0-1.4,0.6-1.4,1.4c0,0.8,0.6,1.4,1.4,1.4h20.6c0.8,0,1.4-0.6,1.4-1.4C52.3,64.2,51.6,63.5,50.9,63.5z M54.8,12.8
			c0.3,0.3,0.6,0.4,1,0.4c0.4,0,0.7-0.1,1-0.4c0.5-0.5,0.5-1.4,0-2L52.9,7c-0.5-0.5-1.4-0.5-1.9,0c-0.5,0.5-0.5,1.4,0,2L54.8,12.8z
			 M62.6,20.7c0.3,0.3,0.6,0.4,1,0.4c0.4,0,0.7-0.1,1-0.4c0.5-0.5,0.5-1.4,0-2l-3.9-3.9c-0.5-0.5-1.4-0.5-1.9,0
			c-0.5,0.5-0.5,1.4,0,2L62.6,20.7z M59.7,13.2c0.4,0,0.7-0.1,1-0.4l3.9-3.9c0.5-0.5,0.5-1.4,0-2c-0.5-0.5-1.4-0.5-1.9,0l-3.9,3.9
			c-0.5,0.5-0.5,1.4,0,2C59,13.1,59.3,13.2,59.7,13.2z M67.4,24.9c0,0.8,0.6,1.4,1.4,1.4h5.5c0.8,0,1.4-0.6,1.4-1.4
			c0-0.8-0.6-1.4-1.4-1.4h-5.5C68,23.5,67.4,24.1,67.4,24.9z M41.9,25.6c0.4,0,0.7-0.1,1-0.4l2.1-2.1c0.5-0.5,0.5-1.4,0-2
			c-0.5-0.5-1.4-0.5-1.9,0L41,23.2c-0.5,0.5-0.5,1.4,0,2C41.2,25.4,41.6,25.6,41.9,25.6z M48.5,28.6c0.3,0.3,0.6,0.4,1,0.4
			c0.4,0,0.7-0.1,1-0.4c0.5-0.5,0.5-1.4,0-2l-1.4-1.4c-0.5-0.5-1.4-0.5-1.9,0c-0.5,0.5-0.5,1.4,0,2L48.5,28.6z M43,28l-1.4,1.4
			c-0.5,0.5-0.5,1.4,0,2c0.3,0.3,0.6,0.4,1,0.4c0.4,0,0.7-0.1,1-0.4L45,30c0.5-0.5,0.5-1.4,0-2C44.4,27.5,43.6,27.5,43,28z"/>
	</g>
</g>
</svg>
