<?xml version="1.0" encoding="utf-8"?>
<!-- Generator: Adobe Illustrator 22.1.0, SVG Export Plug-In . SVG Version: 6.00 Build 0)  -->
<svg version="1.1" id="Слой_1" xmlns="http://www.w3.org/2000/svg" xmlns:xlink="http://www.w3.org/1999/xlink" x="0px" y="0px"
	 viewBox="0 0 35.2 9.1" style="enable-background:new 0 0 35.2 9.1;" xml:space="preserve">
<style type="text/css">
	.st0{fill:#FFFFFF;}
</style>
<g>
	<g>
		<path class="st0" d="M34.1,1.4c0,0-3.8-2.8-6.3,0c0,0-0.4,0.8,0.5,0.8c0.1-0.1,2.7-3.1,5.4-0.3c0.1,0.2,2.9,3-1.4,5.9
			c0,0-1,0.3-2.3,0.4c0,0,0.1,0,0.1-0.1c0,0-1.5,0-4-0.8c-2.6-1.1-8.3-3.5-11.5-4.7c-0.1-0.1-0.3-0.1-0.4-0.2
			c0.1-0.2-8.1-3.9-11.8-1.6C2.3,0.7-1.9,3.6,1,7.8c0,0,3.8,2.8,6.3,0c0,0,0.4-0.8-0.5-0.8c-0.1,0.1-2.7,3.1-5.4,0.3
			c-0.1-0.2-2.9-3,1.4-5.9c0,0,1.1-0.3,2.4-0.4C5.1,1,5,1,5,1.1c0,0,1.5,0,4,0.8c2.6,1.1,8.3,3.5,11.5,4.7c0.1,0.1,0.3,0.1,0.4,0.2
			C20.8,7,29,10.7,32.7,8.4C32.9,8.5,37.1,5.6,34.1,1.4z"/>
	</g>
</g>
</svg>
