<?xml version="1.0" encoding="utf-8"?>
<!-- Generator: Adobe Illustrator 22.1.0, SVG Export Plug-In . SVG Version: 6.00 Build 0)  -->
<svg version="1.1" id="Слой_1" xmlns="http://www.w3.org/2000/svg" xmlns:xlink="http://www.w3.org/1999/xlink" x="0px" y="0px"
	 viewBox="0 0 25.4 24" style="enable-background:new 0 0 25.4 24;" xml:space="preserve">
<style type="text/css">
	.st0{fill:#121920;}
</style>
<g>
	<g>
		<path class="st0" d="M10.7,19.4c-1.2,0-2.2,1-2.2,2.3c0,1.3,1,2.3,2.2,2.3c1.2,0,2.2-1,2.2-2.3C12.9,20.5,11.9,19.4,10.7,19.4z
			 M10.7,22.7c-0.5,0-1-0.5-1-1c0-0.6,0.4-1,1-1c0.5,0,1,0.5,1,1C11.6,22.3,11.2,22.7,10.7,22.7z M18.5,19.4c-1.2,0-2.2,1-2.2,2.3
			c0,1.3,1,2.3,2.2,2.3c1.2,0,2.2-1,2.2-2.3C20.7,20.5,19.7,19.4,18.5,19.4z M18.5,22.7c-0.5,0-1-0.5-1-1c0-0.6,0.4-1,1-1
			c0.5,0,1,0.5,1,1C19.5,22.3,19,22.7,18.5,22.7z M10.1,8.7H19c0.3,0,0.6-0.3,0.6-0.6c0-0.4-0.3-0.6-0.6-0.6h-8.9
			c-0.3,0-0.6,0.3-0.6,0.6C9.5,8.4,9.8,8.7,10.1,8.7z M18.6,10.7h-8c-0.3,0-0.6,0.3-0.6,0.6c0,0.4,0.3,0.6,0.6,0.6h8
			c0.3,0,0.6-0.3,0.6-0.6C19.2,11,18.9,10.7,18.6,10.7z M25.1,4.6c-0.2-0.3-0.6-0.5-1-0.5H4.7L4.3,2.2C4.3,1.8,4,1.4,3.6,1.3
			L0.9,0.1c-0.3-0.1-0.7,0-0.8,0.3c-0.1,0.3,0,0.7,0.3,0.8l2.7,1.2l3,15c0.1,0.6,0.6,1,1.2,1h14.9c0.3,0,0.6-0.3,0.6-0.6
			c0-0.4-0.3-0.6-0.6-0.6H7.4L7,15.3h15.4c0.6,0,1.1-0.4,1.2-1l1.7-8.6C25.5,5.3,25.4,4.9,25.1,4.6z M22.4,14H6.7L5,5.4h19.2
			L22.4,14z"/>
	</g>
</g>
</svg>
