<?xml version="1.0" encoding="utf-8"?>
<!-- Generator: Adobe Illustrator 22.1.0, SVG Export Plug-In . SVG Version: 6.00 Build 0)  -->
<svg version="1.1" id="Слой_1" xmlns="http://www.w3.org/2000/svg" xmlns:xlink="http://www.w3.org/1999/xlink" x="0px" y="0px"
	 viewBox="0 0 80 80" style="enable-background:new 0 0 80 80;" xml:space="preserve">
<style type="text/css">
	.st0{fill:#FFFFFF;}
</style>
<g>
	<g>
		<path class="st0" d="M60.8,38.9l-29.3-20c-0.4-0.3-0.9-0.3-1.4-0.1c-0.4,0.2-0.7,0.7-0.7,1.2v40c0,0.5,0.3,0.9,0.7,1.2
			c0.2,0.1,0.4,0.2,0.6,0.2c0.3,0,0.5-0.1,0.8-0.2l29.3-20c0.4-0.2,0.6-0.7,0.6-1.1S61.1,39.2,60.8,38.9z M32,57.5v-35L57.6,40
			L32,57.5z M40,0C17.9,0,0,17.9,0,40c0,22.1,17.9,40,40,40c22.1,0,40-17.9,40-40C80,17.9,62.1,0,40,0z M40,77.3
			C19.4,77.3,2.7,60.6,2.7,40C2.7,19.4,19.4,2.7,40,2.7c20.6,0,37.3,16.8,37.3,37.3C77.3,60.6,60.6,77.3,40,77.3z"/>
	</g>
</g>
</svg>
