<?xml version="1.0" encoding="utf-8"?>
<!-- Generator: Adobe Illustrator 22.1.0, SVG Export Plug-In . SVG Version: 6.00 Build 0)  -->
<svg version="1.1" id="Слой_1" xmlns="http://www.w3.org/2000/svg" xmlns:xlink="http://www.w3.org/1999/xlink" x="0px" y="0px"
	 viewBox="0 0 82.7 76.4" style="enable-background:new 0 0 82.7 76.4;" xml:space="preserve">
<style type="text/css">
	.st0{fill:#FFFFFF;}
</style>
<g>
	<g>
		<path class="st0" d="M82.6,22.8C81.4,9.6,72,0,60.2,0c-7.8,0-15,4.2-19.1,10.9C37.1,4.1,30.2,0,22.5,0C10.7,0,1.3,9.6,0.1,22.8
			c-0.1,0.6-0.5,3.7,0.7,8.7c1.7,7.2,5.7,13.8,11.4,19l28.8,26l29.3-26c5.8-5.2,9.7-11.8,11.4-19C83,26.4,82.7,23.4,82.6,22.8z
			 M78.8,30.7c-1.6,6.6-5.2,12.6-10.5,17.4L41.1,72.1L14.4,48.1C9.1,43.3,5.5,37.3,3.9,30.7c-1.1-4.7-0.7-7.4-0.7-7.4l0-0.2
			c1-11.6,9.1-20,19.2-20c7.5,0,14,4.6,17.1,11.9l1.5,3.5l1.5-3.5c3.1-7.2,10-11.9,17.6-11.9c10.1,0,18.2,8.4,19.2,20.1
			C79.4,23.3,79.9,26,78.8,30.7z M25.4,9.6c-8.8,0-15.9,7.1-15.9,15.8c0,0.9,0.7,1.6,1.6,1.6c0.9,0,1.6-0.7,1.6-1.6
			c0-7,5.7-12.6,12.7-12.6c0.9,0,1.6-0.7,1.6-1.6C27,10.3,26.3,9.6,25.4,9.6z"/>
	</g>
</g>
</svg>
