<?xml version="1.0" encoding="utf-8"?>
<!-- Generator: Adobe Illustrator 22.1.0, SVG Export Plug-In . SVG Version: 6.00 Build 0)  -->
<svg version="1.1" id="Слой_1" xmlns="http://www.w3.org/2000/svg" xmlns:xlink="http://www.w3.org/1999/xlink" x="0px" y="0px"
	 viewBox="0 0 83.1 82.9" style="enable-background:new 0 0 83.1 82.9;" xml:space="preserve">
<style type="text/css">
	.st0{fill:#FFFFFF;}
</style>
<g>
	<g>
		<path class="st0" d="M43.4,38c-7.6-2.8-14.7-2.8-21.8,0c-0.7,0.3-1.1,1.1-0.8,1.8c0.3,0.7,1.1,1,1.8,0.8c6.4-2.6,12.9-2.6,19.8,0
			c0.2,0.1,0.3,0.1,0.5,0.1c0.6,0,1.1-0.3,1.3-0.9C44.5,39.1,44.1,38.3,43.4,38z M81.7,49.7H77c-2.4-5.1-5.8-8.2-10.2-9.3l2.4-8.2
			c0.2-0.5,0-1.1-0.5-1.5c-0.5-0.3-1.1-0.4-1.6-0.1L56.9,37c-6.7-5.4-17.3-6.6-25.2-6.6c-6.1,0-11.8,1.2-16.7,3.3
			c-0.7-1.7-2.3-3.1-4.6-4c-3.3-1.4-7.5-1.6-9.6-0.5C0.3,29.4,0,29.9,0,30.4c0,2.2,0,6.9,4.2,6.9c0.8,0,1.4-0.6,1.4-1.4
			c0-0.8-0.6-1.4-1.4-1.4c-0.9,0-1.3-0.8-1.4-3.2c1.6-0.3,4.3-0.1,6.6,0.9c1.7,0.7,2.8,1.6,3.2,2.7C4.9,38.9,0,45.3,0,52.5
			C0,57,1.4,61,4.3,64.2l4.1,17.6c0.1,0.6,0.7,1.1,1.3,1.1h12.5c0.8,0,1.4-0.6,1.4-1.4v-5c5.9,1.9,12.1,2.2,18.8,1l3.6,4.8
			c0.3,0.3,0.7,0.6,1.1,0.6h9.7c0.8,0,1.4-0.6,1.4-1.4v-7.1c14.6-2,25-9.4,24.9-17.8v-5.5C83.1,50.3,82.4,49.7,81.7,49.7z
			 M80.3,56.6L80.3,56.6L80.3,56.6c0,7.1-10.1,13.6-23.7,15.2c-0.7,0.1-1.2,0.7-1.2,1.4v6.9h-7.6l-3.7-5c-0.3-0.4-0.9-0.6-1.4-0.5
			c-7.2,1.5-13.8,1-20-1.3c-0.4-0.2-0.9-0.1-1.3,0.2c-0.4,0.3-0.6,0.7-0.6,1.1v5.5h-10L6.9,63.2c-0.1-0.2-0.2-0.4-0.3-0.6
			C4,59.8,2.8,56.5,2.8,52.5c0-10.7,13-19.3,28.9-19.3c10.9,0,19.5,2.3,24.2,6.5c0.5,0.4,1.1,0.5,1.7,0.1l8-5L63.7,41
			c-0.1,0.4,0,0.8,0.2,1.1c0.2,0.3,0.6,0.6,1,0.6c4.5,0.7,7.7,3.5,10,8.9c0.2,0.5,0.7,0.8,1.3,0.8h4.2V56.6z M67.3,47.2
			c-0.6-0.5-1.5-0.3-1.9,0.3c-0.5,0.6-0.3,1.5,0.3,1.9c0.2,0.2,0.5,0.3,0.8,0.3c0.4,0,0.8-0.2,1.1-0.6C68,48.6,67.9,47.7,67.3,47.2
			L67.3,47.2z M31.8,18c-2.1,0-2.5-0.3-3.2-1c-0.5-0.5-1.4-0.6-2,0c-0.5,0.5-0.6,1.4,0,2c1.1,1.1,2.1,1.6,3.8,1.7v0.1
			c0,0.8,0.6,1.4,1.4,1.4s1.4-0.6,1.4-1.4v-0.1c2.4-0.4,4-1.8,4.2-3.6c0.1-0.8-0.1-3.5-5.3-4.5c-0.1,0-0.1,0-0.2,0
			c-1.7-0.1-2.6-0.7-2.6-1.3c0-0.6,0.8-1.4,2.5-1.4c2.4,0,2.9,0.6,3.1,0.9c0.5,0.6,1.3,0.7,1.9,0.2c0.6-0.5,0.7-1.3,0.2-1.9
			c-0.8-1-2.1-1.6-3.9-1.8V6.9c0-0.8-0.6-1.4-1.4-1.4c-0.8,0-1.4,0.6-1.4,1.4v0.1c-2.5,0.5-3.9,2.3-3.9,4c0,1.9,1.5,3.9,5.1,4.1
			c2.3,0.5,3,1.3,3,1.6C34.6,17.2,33.6,17.9,31.8,18z M31.8,27.6c7.6,0,13.8-6.2,13.8-13.8C45.7,6.2,39.5,0,31.8,0
			C24.2,0,18,6.2,18,13.8C18,21.4,24.2,27.6,31.8,27.6z M31.8,2.8c6.1,0,11.1,5,11.1,11c0,6.1-5,11-11.1,11c-6.1,0-11.1-5-11.1-11
			C20.8,7.7,25.7,2.8,31.8,2.8z"/>
	</g>
</g>
</svg>
