<?xml version="1.0" encoding="utf-8"?>
<!-- Generator: Adobe Illustrator 22.1.0, SVG Export Plug-In . SVG Version: 6.00 Build 0)  -->
<svg version="1.1" id="Слой_1" xmlns="http://www.w3.org/2000/svg" xmlns:xlink="http://www.w3.org/1999/xlink" x="0px" y="0px"
	 viewBox="0 0 60 55.6" style="enable-background:new 0 0 60 55.6;" xml:space="preserve">
<style type="text/css">
	.st0{fill:#7FCDC7;}
</style>
<g>
	<g>
		<path class="st0" d="M59.9,16.6C59.1,7,52.2,0,43.7,0c-5.7,0-10.9,3-13.8,7.9C26.9,3,21.9,0,16.3,0C7.8,0,1,7,0.1,16.6
			C0,17-0.3,19.2,0.6,22.9c1.2,5.3,4.1,10,8.3,13.8l20.9,18.9l21.3-18.9c4.2-3.8,7.1-8.6,8.3-13.8C60.3,19.2,60,17,59.9,16.6z
			 M57.2,22.3c-1.1,4.8-3.8,9.2-7.6,12.6L29.8,52.5L10.5,35C6.6,31.5,4,27.1,2.9,22.3c-0.8-3.4-0.5-5.4-0.5-5.4l0-0.1
			C3.1,8.4,9,2.3,16.3,2.3c5.4,0,10.2,3.3,12.4,8.6l1.1,2.5l1.1-2.5c2.2-5.2,7.2-8.6,12.8-8.6c7.3,0,13.2,6.1,14,14.6
			C57.7,16.9,58,18.9,57.2,22.3z M18.5,7C12.1,7,6.9,12.1,6.9,18.5c0,0.6,0.5,1.1,1.2,1.1c0.6,0,1.2-0.5,1.2-1.1
			c0-5.1,4.1-9.2,9.2-9.2c0.6,0,1.2-0.5,1.2-1.1C19.6,7.5,19.1,7,18.5,7z"/>
	</g>
</g>
</svg>
