<?xml version="1.0" encoding="utf-8"?>
<!-- Generator: Adobe Illustrator 22.1.0, SVG Export Plug-In . SVG Version: 6.00 Build 0)  -->
<svg version="1.1" id="Слой_1" xmlns="http://www.w3.org/2000/svg" xmlns:xlink="http://www.w3.org/1999/xlink" x="0px" y="0px"
	 viewBox="0 0 57.9 60" style="enable-background:new 0 0 57.9 60;" xml:space="preserve">
<style type="text/css">
	.st0{fill:#7FCDC7;}
</style>
<g>
	<g>
		<path class="st0" d="M31,22.2l3.8,2.2c0.2,0.1,0.3,0.1,0.5,0.1c0.3,0,0.7-0.2,0.8-0.5c0.3-0.5,0.1-1-0.4-1.3l-3.8-2.2
			c-0.5-0.3-1.1-0.1-1.3,0.4C30.4,21.3,30.5,21.9,31,22.2z M20.1,26.9c-0.5,0-1,0.4-1,1v4.3c0,0.5,0.4,1,1,1c0.5,0,1-0.4,1-1v-4.3
			C21.1,27.3,20.6,26.9,20.1,26.9z M34.7,35.7L31,37.8c-0.5,0.3-0.6,0.9-0.4,1.3c0.2,0.3,0.5,0.5,0.8,0.5c0.2,0,0.3,0,0.5-0.1
			l3.8-2.2c0.5-0.3,0.6-0.9,0.4-1.3C35.8,35.6,35.2,35.4,34.7,35.7z M54.3,41c-1,0-1.8,0.4-2.5,1l-6.8-3.9c0.1-0.3,0.1-0.6,0.1-0.9
			c0-1.6-1.1-3-2.6-3.4v-7.8c1.5-0.4,2.6-1.8,2.6-3.4c0-0.3,0-0.6-0.1-0.9l6.8-3.9c0.6,0.6,1.5,1,2.5,1c2,0,3.5-1.6,3.5-3.5
			c0-1.9-1.6-3.5-3.5-3.5c-2,0-3.5,1.6-3.5,3.5c0,0.3,0,0.6,0.1,0.9l-6.8,3.9c-0.6-0.6-1.5-1-2.5-1s-1.8,0.4-2.5,1l-6.8-3.9
			c0.1-0.3,0.1-0.6,0.1-0.9c0-1.6-1.1-3-2.6-3.4V1c0-0.5-0.4-1-1-1c-0.5,0-1,0.4-1,1v11.1c-1.5,0.4-2.6,1.8-2.6,3.4
			c0,0.3,0,0.6,0.1,0.9l-6.8,3.9c-0.6-0.6-1.5-1-2.5-1s-1.8,0.4-2.5,1L7,16.3c0.1-0.3,0.1-0.6,0.1-0.9c0-1.9-1.6-3.5-3.5-3.5
			c-2,0-3.5,1.6-3.5,3.5C0,17.4,1.6,19,3.5,19c1,0,1.8-0.4,2.5-1l6.8,3.9c-0.1,0.3-0.1,0.6-0.1,0.9c0,1.6,1.1,3,2.6,3.4v7.8
			c-1.5,0.4-2.6,1.8-2.6,3.4c0,0.3,0,0.6,0.1,0.9L6,42c-0.6-0.6-1.5-1-2.5-1c-2,0-3.5,1.6-3.5,3.5C0,46.5,1.6,48,3.5,48
			c2,0,3.5-1.6,3.5-3.5c0-0.3,0-0.6-0.1-0.9l6.8-3.9c0.6,0.6,1.5,1,2.5,1c1,0,1.8-0.4,2.5-1l6.8,3.9c-0.1,0.3-0.1,0.6-0.1,0.9
			c0,1.6,1.1,3,2.6,3.4V59c0,0.5,0.4,1,1,1c0.5,0,1-0.4,1-1V47.9c1.5-0.4,2.6-1.8,2.6-3.4c0-0.3,0-0.6-0.1-0.9l6.8-3.9
			c0.6,0.6,1.5,1,2.5,1c1,0,1.8-0.4,2.5-1l6.8,3.9c-0.1,0.3-0.1,0.6-0.1,0.9c0,1.9,1.6,3.5,3.5,3.5c2,0,3.5-1.6,3.5-3.5
			C57.9,42.6,56.3,41,54.3,41z M54.3,13.9c0.9,0,1.6,0.7,1.6,1.6c0,0.9-0.7,1.6-1.6,1.6c-0.9,0-1.6-0.7-1.6-1.6
			C52.7,14.6,53.4,13.9,54.3,13.9z M3.5,17.1c-0.9,0-1.6-0.7-1.6-1.6c0-0.9,0.7-1.6,1.6-1.6c0.9,0,1.6,0.7,1.6,1.6
			C5.2,16.4,4.4,17.1,3.5,17.1z M3.5,46.1c-0.9,0-1.6-0.7-1.6-1.6c0-0.9,0.7-1.6,1.6-1.6c0.9,0,1.6,0.7,1.6,1.6
			C5.2,45.4,4.4,46.1,3.5,46.1z M41.6,21.1c0.9,0,1.6,0.7,1.6,1.6c0,0.9-0.7,1.6-1.6,1.6c-0.9,0-1.6-0.7-1.6-1.6
			C40,21.9,40.7,21.1,41.6,21.1z M28.9,13.9c0.9,0,1.6,0.7,1.6,1.6c0,0.9-0.7,1.6-1.6,1.6c-0.9,0-1.6-0.7-1.6-1.6
			C27.3,14.6,28,13.9,28.9,13.9z M14.6,22.7c0-0.9,0.7-1.6,1.6-1.6c0.9,0,1.6,0.7,1.6,1.6c0,0.9-0.7,1.6-1.6,1.6
			C15.3,24.3,14.6,23.6,14.6,22.7z M16.2,38.9c-0.9,0-1.6-0.7-1.6-1.6s0.7-1.6,1.6-1.6c0.9,0,1.6,0.7,1.6,1.6S17.1,38.9,16.2,38.9z
			 M28.9,46.1c-0.9,0-1.6-0.7-1.6-1.6c0-0.9,0.7-1.6,1.6-1.6c0.9,0,1.6,0.7,1.6,1.6C30.5,45.4,29.8,46.1,28.9,46.1z M38.1,37.3
			c0,0.3,0,0.6,0.1,0.9L31.4,42c-0.6-0.6-1.5-1-2.5-1c-1,0-1.8,0.4-2.5,1l-6.8-3.9c0.1-0.3,0.1-0.6,0.1-0.9c0-1.6-1.1-3-2.6-3.4
			v-7.8c1.5-0.4,2.6-1.8,2.6-3.4c0-0.3,0-0.6-0.1-0.9l6.8-3.9c0.6,0.6,1.5,1,2.5,1c1,0,1.8-0.4,2.5-1l6.8,3.9
			c-0.1,0.3-0.1,0.6-0.1,0.9c0,1.6,1.1,3,2.6,3.4v7.8C39.2,34.3,38.1,35.7,38.1,37.3z M41.6,38.9c-0.9,0-1.6-0.7-1.6-1.6
			s0.7-1.6,1.6-1.6c0.9,0,1.6,0.7,1.6,1.6S42.5,38.9,41.6,38.9z M54.3,46.1c-0.9,0-1.6-0.7-1.6-1.6c0-0.9,0.7-1.6,1.6-1.6
			c0.9,0,1.6,0.7,1.6,1.6C55.9,45.4,55.2,46.1,54.3,46.1z"/>
	</g>
</g>
</svg>
