<?xml version="1.0" encoding="utf-8"?>
<!-- Generator: Adobe Illustrator 22.1.0, SVG Export Plug-In . SVG Version: 6.00 Build 0)  -->
<svg version="1.1" id="Слой_1" xmlns="http://www.w3.org/2000/svg" xmlns:xlink="http://www.w3.org/1999/xlink" x="0px" y="0px"
	 viewBox="0 0 45.5 60" style="enable-background:new 0 0 45.5 60;" xml:space="preserve">
<style type="text/css">
	.st0{fill:#7FCDC7;}
</style>
<g>
	<g>
		<path class="st0" d="M42,22c-1.8-4-4.4-7.9-7.6-11.7C28.9,4,23.5,0.3,23.3,0.2c-0.3-0.2-0.8-0.2-1.1,0C22,0.3,16.6,4,11.1,10.4
			C7.9,14.1,5.3,18,3.5,22C1.2,27.1,0,32.2,0,37.3C0,49.8,10.2,60,22.8,60c12.5,0,22.8-10.2,22.8-22.7C45.5,32.2,44.3,27.1,42,22z
			 M22.8,58.1c-11.5,0-20.8-9.3-20.8-20.8c0-4.8,1.1-9.6,3.3-14.4c1.8-3.8,4.2-7.6,7.3-11.2c4.3-5.1,8.7-8.4,10.2-9.5
			c1.5,1.1,5.8,4.4,10.2,9.5c3.1,3.6,5.6,7.4,7.3,11.2c2.2,4.8,3.3,9.6,3.3,14.4C43.6,48.7,34.2,58.1,22.8,58.1z M40.1,40.5
			c-0.5-0.1-1,0.2-1.2,0.7c-1.1,4.6-4.2,8.5-8.4,10.8c-0.5,0.3-0.7,0.8-0.4,1.3c0.2,0.3,0.5,0.5,0.9,0.5c0.2,0,0.3,0,0.5-0.1
			c4.7-2.5,8.1-6.9,9.3-12C41,41.1,40.6,40.6,40.1,40.5z M41.3,35.1c0-0.5-0.5-0.9-1-0.9c-0.5,0-0.9,0.5-0.9,1c0,0.7,0.1,1.3,0.1,2
			c0,0.5,0.4,1,1,1c0.5,0,1-0.4,1-1C41.4,36.6,41.3,35.8,41.3,35.1z M18.6,28c-0.5,0-1,0.4-1,1v5.2h-6.4V29c0-0.5-0.4-1-1-1
			c-0.5,0-1,0.4-1,1v12.4c0,0.5,0.4,1,1,1c0.5,0,1-0.4,1-1v-5.2h6.4v5.2c0,0.5,0.4,1,1,1s1-0.4,1-1V29C19.6,28.4,19.1,28,18.6,28z
			 M36.2,37.3v-4.1c0-2.8-2.3-5.1-5.1-5.1c-2.8,0-5.1,2.3-5.1,5.1v4.1c0,2.8,2.3,5.1,5.1,5.1C33.9,42.4,36.2,40.1,36.2,37.3z
			 M27.9,37.3v-4.1c0-1.8,1.4-3.2,3.2-3.2c1.8,0,3.2,1.4,3.2,3.2v4.1c0,1.8-1.4,3.2-3.2,3.2C29.3,40.4,27.9,39,27.9,37.3z
			 M23.3,45.5h0.5c1.4,0,2.5-1.1,2.5-2.5c0-1.4-1.1-2.5-2.5-2.5h-1c-1.1,0-2,0.9-2,2c0,0.5,0.4,1,1,1s1-0.4,1-1c0,0,0-0.1,0.1-0.1h1
			c0.3,0,0.6,0.3,0.6,0.6c0,0.3-0.3,0.6-0.6,0.6h-0.5c-1.4,0-2.5,1.1-2.5,2.5v1.6c0,0.5,0.4,1,1,1h3.6c0.5,0,1-0.4,1-1
			c0-0.5-0.4-1-1-1h-2.7v-0.6C22.7,45.8,23,45.5,23.3,45.5z"/>
	</g>
</g>
</svg>
