<?xml version="1.0" encoding="utf-8"?>
<!-- Generator: Adobe Illustrator 22.1.0, SVG Export Plug-In . SVG Version: 6.00 Build 0)  -->
<svg version="1.1" id="Слой_1" xmlns="http://www.w3.org/2000/svg" xmlns:xlink="http://www.w3.org/1999/xlink" x="0px" y="0px"
	 viewBox="0 0 57 60" style="enable-background:new 0 0 57 60;" xml:space="preserve">
<style type="text/css">
	.st0{fill:#7FCDC7;}
</style>
<path class="st0" d="M56.8,43c-0.2-0.3-0.4-0.5-0.7-0.6c-0.1,0-6.4-1.4-14.5-2.5c0,0,0-0.1,0-0.1c-3.6-8.3-4.8-8.3-5.4-8.3
	c-0.8,0-4.6,0.8-7.7,1.4v-8c0,0,0.1,0,0.1,0c1.1,0.3,2.1,0.4,3.2,0.4c3.2,0,6.4-1.3,8.8-3.6c3.3-3.3,4.5-8.1,3.1-12.5
	c-0.1-0.3-0.4-0.6-0.7-0.7c-4.4-1.4-9.2-0.2-12.5,3.1c-0.5,0.5-1,1.1-1.4,1.6c-0.4-3.2-1.9-6.3-4.3-8.7c-4-4-9.8-5.4-15.1-3.7
	C9.3,0.8,9,1.1,8.9,1.4c-1.7,5.4-0.3,11.2,3.7,15.1c2.9,2.9,6.7,4.4,10.6,4.4c1,0,2-0.1,3.1-0.3v12.8c-0.4,0.1-0.8,0.2-1.1,0.2
	c-2.3-0.4-6.1-0.9-7.3,0.3l-2,2l-3,1c-3.7,1.2-5,6.7-5.1,7.3c-1.3-0.8-2.5-1.7-3.7-2.7c-0.2-0.2-0.5-0.3-0.7-0.3
	c-2.4,0-3.3,1.2-3.3,2.2c0,0.3,0,0.9,2.3,3.6c0.9,1,2.8,3.1,5.3,5.3C11.6,55.9,17.4,60,23,60c6.4,0,11-1.4,14.3-2.3
	c1.8-0.5,3.2-1,4.3-1c3.3,0,9.8-1.1,10-1.1c0.4-0.1,0.7-0.3,0.8-0.7l4.4-11C57,43.7,57,43.3,56.8,43z M32,13
	c2.6-2.6,6.3-3.6,9.7-2.7c0.9,3.5-0.1,7.2-2.7,9.8c-2.3,2.4-5.6,3.4-8.9,2.9c0.9-1.5,2.1-3.2,3.2-3.7c0.5-0.3,0.8-0.9,0.5-1.5
	c-0.3-0.5-0.9-0.8-1.5-0.5c-1.3,0.6-2.5,2.1-3.4,3.4C28.8,17.9,29.9,15.1,32,13z M21.3,12.7c2.9,1.9,3.9,5.9,3.9,5.9c0,0,0,0,0,0
	c-4,0.6-8.1-0.7-11-3.6c-3.3-3.3-4.5-7.9-3.3-12.4C15.3,1.5,20,2.7,23.2,6c2.8,2.8,4.1,6.8,3.7,10.7c-0.6-1.6-2-4.2-4.4-5.8
	c-0.5-0.3-1.2-0.2-1.5,0.3C20.7,11.6,20.8,12.3,21.3,12.7z M9.8,44.9c0.3-1.4,1.5-5,3.7-5.8l3.3-1.1c0.2-0.1,0.3-0.1,0.4-0.3
	l2.2-2.2c0.5-0.3,3.2-0.2,5.6,0.3c0.1,0,0.3,0,0.5,0c4.4-1,9.2-2,10.5-2.1c0.6,0.7,2,3.3,3.1,5.9c-1.3-0.2-2.6-0.3-3.9-0.4
	C24.3,38.1,18,39,16.5,42c-0.3,0.6-0.3,1.2,0.1,1.8c0.9,1.5,4.1,2,11.9,2c1.1,0,1.6,0.3,1.7,0.5c0.1,0.2,0,0.6-0.3,0.8
	c-0.6,0.3-4.3,1.4-9.6,1.1c-3-0.2-6.9-0.9-10.8-2.8C9.7,45.2,9.8,45.1,9.8,44.9z M50.7,53.5c-1.7,0.3-6.5,1-9.1,1
	c-1.4,0-2.9,0.5-4.9,1c-3.2,0.9-7.6,2.2-13.7,2.2c-4.7,0-10-3.6-13.5-6.6c-3.8-3.2-6.3-6.3-7.1-7.5c0.1,0,0.3-0.1,0.5-0.1
	c6,5.2,12.9,6.6,17.7,6.8c5,0.3,9.8-0.7,10.8-1.7c0.9-0.9,1.2-2.2,0.8-3.3c-0.3-0.7-1.2-1.9-3.7-1.9c-6.8,0-9.1-0.5-9.8-0.8
	c0.7-0.8,3.7-2.6,16.3-1.4c8.5,0.9,16.4,2.4,19.4,3L50.7,53.5z"/>
</svg>
