<?xml version="1.0" encoding="utf-8"?>
<!-- Generator: Adobe Illustrator 22.1.0, SVG Export Plug-In . SVG Version: 6.00 Build 0)  -->
<svg version="1.1" id="Слой_1" xmlns="http://www.w3.org/2000/svg" xmlns:xlink="http://www.w3.org/1999/xlink" x="0px" y="0px"
	 viewBox="0 0 50.1 60" style="enable-background:new 0 0 50.1 60;" xml:space="preserve">
<style type="text/css">
	.st0{fill:#7FCDC7;}
</style>
<path class="st0" d="M50.1,18c0-0.1-0.1-0.2-0.2-0.3c-0.8-3.6-3.3-5.7-5.2-7.3c-0.3-0.2-0.6-0.5-0.8-0.7l0,0
	c-0.4-0.3-0.5-0.8-0.4-1.1c0-0.6,0.3-1.1,0.8-1.5c0,0,0.1-0.1,0.1-0.1c0.1-0.1,0.3-0.2,0.4-0.4c0.1-0.1,0.1-0.1,0.1-0.2
	c0.1-0.1,0.2-0.3,0.3-0.4c0-0.1,0.1-0.1,0.1-0.2c0.1-0.2,0.1-0.4,0.2-0.5c0-0.1,0-0.1,0.1-0.2c0.1-0.2,0.1-0.5,0.1-0.7V3.4
	c0-1.9-1.5-3.4-3.4-3.4H29.6c-1.9,0-3.4,1.5-3.4,3.4v1.1c0,0.3,0,0.5,0.1,0.8c0,0.1,0,0.1,0.1,0.2c0.1,0.2,0.1,0.4,0.2,0.6
	c0,0.1,0.1,0.1,0.1,0.2c0.1,0.2,0.2,0.3,0.3,0.5c0,0,0.1,0.1,0.1,0.1c0.2,0.2,0.3,0.3,0.5,0.5c0,0,0,0,0,0c0.5,0.3,0.8,0.9,0.9,1.4
	c0,0.4,0,0.7-0.3,0.9c-0.1,0.1-0.1,0.1-0.2,0.2c-0.3,0.2-0.5,0.4-0.8,0.7c-0.7,0.6-1.4,1.2-2.1,1.9c-0.7-0.7-1.4-1.3-2.1-1.9
	c-0.3-0.2-0.6-0.5-0.8-0.7l0,0c-0.4-0.3-0.5-0.8-0.4-1.1c0-0.6,0.3-1.1,0.8-1.5c0,0,0.1-0.1,0.1-0.1c0.1-0.1,0.3-0.2,0.4-0.4
	c0.1-0.1,0.1-0.1,0.1-0.2c0.1-0.1,0.2-0.3,0.3-0.4c0-0.1,0.1-0.1,0.1-0.2c0.1-0.2,0.1-0.4,0.2-0.5c0-0.1,0-0.1,0.1-0.2
	c0.1-0.2,0.1-0.5,0.1-0.7V3.4c0-1.9-1.5-3.4-3.4-3.4H8C6.1,0,4.6,1.5,4.6,3.4v1.1c0,0.3,0,0.5,0.1,0.8c0,0.1,0,0.1,0.1,0.2
	C4.8,5.6,4.8,5.8,4.9,6C4.9,6.1,5,6.1,5,6.2c0.1,0.2,0.2,0.3,0.3,0.5c0,0,0.1,0.1,0.1,0.1C5.6,7,5.8,7.1,6,7.3c0,0,0,0,0,0
	c0.5,0.3,0.8,0.9,0.9,1.4c0,0.4,0,0.7-0.3,0.9C6.5,9.7,6.5,9.7,6.4,9.8c-0.3,0.2-0.5,0.4-0.8,0.7C3.2,12.4,0,15,0,20.4v7
	c0,0,0,0.1,0,0.1v27.1c0,3,2.4,5.4,5.4,5.4H23c0.7,0,1.4-0.1,2-0.4c0.7,0.3,1.3,0.4,2,0.4h17.6c3,0,5.4-2.4,5.4-5.4V20.4
	c0-0.5,0-1-0.1-1.4C50.2,18.7,50.2,18.3,50.1,18z M47.9,29.4h-3.4c-0.6,0-1.1,0.5-1.1,1.1c0,0.6,0.5,1.1,1.1,1.1h3.4v5.7h-5.7
	c-0.6,0-1.1,0.5-1.1,1.1c0,0.6,0.5,1.1,1.1,1.1h5.7v2.3h-3.4c-0.6,0-1.1,0.5-1.1,1.1c0,0.6,0.5,1.1,1.1,1.1h3.4v2.3H37.6V27.2h10.3
	V29.4z M28.5,3.4c0-0.6,0.5-1.1,1.1-1.1h12.5c0.6,0,1.1,0.5,1.1,1.1v1.1c0,0.2,0,0.3-0.1,0.5c0,0,0,0.1-0.1,0.1
	c-0.1,0.1-0.1,0.2-0.2,0.3c-0.2,0.2-0.4,0.3-0.7,0.3H29.6c-0.3,0-0.5-0.1-0.7-0.3c0,0-0.1-0.1-0.1-0.1c-0.1-0.1-0.1-0.2-0.2-0.3
	c0,0,0-0.1,0-0.1c0-0.1-0.1-0.3-0.1-0.4V3.4z M26.6,14.1c0.7-0.7,1.4-1.3,2.1-1.9c0.3-0.2,0.6-0.5,0.8-0.7c0.2-0.1,0.3-0.3,0.5-0.5
	c0.6-0.7,0.9-1.7,0.8-2.7c0-0.2-0.1-0.3-0.1-0.5h10.6c-0.1,0.2-0.1,0.4-0.1,0.7c-0.1,1.1,0.4,2.1,1.2,2.9l0,0
	c0.3,0.2,0.6,0.5,0.9,0.7c1.7,1.4,3.6,3,4.3,5.6c-3.1,1.2-5.8,1.4-8.5,0.7c-1.2-0.3-2.4-0.7-3.5-1.1c-2.5-0.9-5-1.8-8-1.6
	c-0.1-0.1-0.1-0.2-0.2-0.4c0,0,0,0,0,0C27.2,15,26.9,14.5,26.6,14.1C26.6,14.1,26.6,14.1,26.6,14.1z M6.8,3.4c0-0.6,0.5-1.1,1.1-1.1
	h12.5c0.6,0,1.1,0.5,1.1,1.1v1.1c0,0.2,0,0.3-0.1,0.5c0,0,0,0.1-0.1,0.1c-0.1,0.1-0.1,0.2-0.2,0.3c-0.2,0.2-0.4,0.3-0.7,0.3H8
	c-0.3,0-0.5-0.1-0.7-0.3c0,0-0.1-0.1-0.1-0.1C7.1,5.2,7,5.1,6.9,5c0,0,0-0.1,0-0.1c0-0.1-0.1-0.3-0.1-0.4V3.4z M7,12.2
	c0.3-0.2,0.6-0.5,0.8-0.7c0.2-0.1,0.3-0.3,0.5-0.5C9,10.3,9.2,9.4,9.1,8.4C9.1,8.2,9,8.1,9,7.9h10.6c-0.1,0.2-0.1,0.5-0.1,0.7
	c-0.1,1.1,0.4,2.1,1.2,2.9l0,0c0.3,0.2,0.6,0.5,0.9,0.7c1.1,0.9,2.2,1.9,3.1,3.1c0,0,0,0,0,0.1c0.2,0.3,0.4,0.6,0.5,0.9
	c0,0.1,0.1,0.1,0.1,0.2c0.2,0.3,0.3,0.7,0.4,1.1c0,0,0,0.1,0,0.1c0.1,0.4,0.2,0.8,0.3,1.2c0,0,0,0,0,0c0.1,0.5,0.1,1,0.1,1.5v5.2
	c-4.7-1.5-8.3-0.8-12.6,1c-4.1,1.7-7,1.8-11.4,0v-6.3C2.3,16.1,4.8,14,7,12.2z M2.3,54.6V29.1c2.1,0.8,3.9,1.2,5.7,1.2
	c2.1,0,4.1-0.5,6.5-1.5c4.7-2,7.8-2.2,11.7-0.7v26.6c0,0.3,0,0.5-0.1,0.8c0,0,0,0.1,0,0.1c-0.1,0.2-0.2,0.5-0.3,0.7c0,0,0,0,0,0
	c-0.3,0.5-0.7,0.9-1.2,1.2l-0.3,0.2c-0.4,0.2-0.8,0.2-1.2,0.2H5.4C3.7,57.7,2.3,56.3,2.3,54.6z M44.7,57.7H27.5
	c0.1-0.2,0.2-0.3,0.3-0.5c0.1-0.1,0.1-0.2,0.2-0.3c0.1-0.1,0.1-0.3,0.2-0.4c0.1-0.2,0.1-0.3,0.2-0.5c0-0.1,0.1-0.2,0.1-0.4
	c0.1-0.3,0.1-0.6,0.1-1c0,0,0,0,0,0v0V27.2c0,0,0,0,0,0v-6.9c0-0.6,0-1.1-0.1-1.6c0,0,0-0.1,0-0.1c0-0.2-0.1-0.3-0.1-0.5
	c2.3-0.1,4.3,0.7,6.5,1.5c1.2,0.4,2.4,0.9,3.7,1.2c1.2,0.3,2.3,0.4,3.5,0.4c1.9,0,3.8-0.4,5.8-1.1c0,0.1,0,0.1,0,0.2v4.5H35.3v23.8
	h12.5v5.9C47.9,56.3,46.4,57.7,44.7,57.7z"/>
</svg>
