<?xml version="1.0" encoding="utf-8"?>
<!-- Generator: Adobe Illustrator 22.1.0, SVG Export Plug-In . SVG Version: 6.00 Build 0)  -->
<svg version="1.1" id="Слой_1" xmlns="http://www.w3.org/2000/svg" xmlns:xlink="http://www.w3.org/1999/xlink" x="0px" y="0px"
	 viewBox="0 0 60 53.3" style="enable-background:new 0 0 60 53.3;" xml:space="preserve">
<style type="text/css">
	.st0{fill:#7FCDC7;}
</style>
<g>
	<g>
		<path class="st0" d="M59.4,25.4c-0.5-0.5-1.1-0.8-1.8-0.8h-0.2c0.9-1.6,1.4-3.3,1.4-5.1c0-4.1-2.4-7.8-6.1-9.4
			C52.6,4.5,48.1,0,42.6,0c-5.5,0-10,4.5-10.1,10.1C32.2,10,32,10,31.8,10c-0.9,0-1.7,0.4-2.3,1.2l-0.3,0.4
			c-0.2,0.3-0.6,0.4-0.9,0.3L28,11.6c-0.8-0.4-1.8-0.3-2.6,0.1c-0.8,0.5-1.3,1.3-1.4,2.2l0,0.4c0,0.2-0.1,0.4-0.2,0.6
			c-0.2-0.1-0.4-0.3-0.4-0.6l0-0.4c-0.1-0.9-0.5-1.6-1.2-2l3.2-4.6c0.6-0.9,0.9-2,0.7-3.1c-0.2-1.1-0.8-2-1.7-2.7
			c-1.8-1.3-4.4-0.9-5.7,1L12.9,11c-0.2,0.3-0.3,0.6-0.5,0.9c-0.1,0-0.2,0-0.3-0.1l-0.4-0.2c-0.8-0.4-1.8-0.3-2.6,0.1
			c-0.8,0.5-1.3,1.3-1.4,2.2l0,0.4c0,0.4-0.3,0.7-0.7,0.7l-0.4,0c-0.9,0.1-1.7,0.6-2.2,1.4c-0.5,0.8-0.5,1.8-0.1,2.6l0.2,0.4
			c0.2,0.3,0,0.7-0.2,0.9L4,20.7C3.2,21.2,2.8,22,2.8,23c0,0.6,0.2,1.2,0.6,1.7h-1c-0.7,0-1.3,0.3-1.8,0.8C0.2,25.9,0,26.6,0,27.2
			c0.6,9,6.2,13.5,14.5,17.5c0.9,0.4,1.7,1.2,2.2,2.1c0.5,0.9,0.4,2-0.2,3c-0.4,0.7-0.4,1.6,0,2.4c0.4,0.7,1.2,1.2,2,1.2h23.1
			c0.8,0,1.6-0.4,2-1.2c0.4-0.7,0.4-1.6,0-2.4c-0.6-1-0.6-2.1-0.2-3c0.5-0.9,1.2-1.6,2.2-2.1c8.3-4,13.9-8.5,14.5-17.5
			C60.1,26.6,59.8,25.9,59.4,25.4z M50.9,16.1c0.1-0.2,0.2-0.3,0.3-0.5c0.1-0.1,0.1-0.2,0.2-0.3c0.1-0.2,0.2-0.4,0.3-0.5
			c0-0.1,0.1-0.1,0.1-0.2c0.1-0.2,0.2-0.4,0.3-0.6c0,0,0-0.1,0-0.1c0.2-0.5,0.3-1,0.4-1.5c2.6,1.4,4.3,4.2,4.3,7.2
			c0,1.9-0.6,3.7-1.8,5.1h-5.3v-4.1c0-0.6-0.5-1-1-1c-0.6,0-1,0.5-1,1v4.1h-3.6c0.1-0.1,0.2-0.2,0.2-0.4c0,0,0,0,0,0
			c0.1-0.2,0.2-0.4,0.2-0.6c0,0,0-0.1,0-0.1c0-0.2,0.1-0.4,0.1-0.6c0-0.9-0.4-1.8-1.2-2.3l-0.2-0.2c0.1,0,0.2,0,0.2,0
			c0.1,0,0.2,0,0.4,0c0.2,0,0.4-0.1,0.6-0.1c0.1,0,0.2,0,0.3-0.1c0.2,0,0.4-0.1,0.6-0.2c0.1,0,0.2,0,0.3-0.1
			c0.3-0.1,0.6-0.2,0.8-0.3c0.1,0,0.2-0.1,0.2-0.1c0.2-0.1,0.4-0.2,0.6-0.3c0.1-0.1,0.2-0.1,0.3-0.2c0.2-0.1,0.3-0.2,0.5-0.3
			c0.1-0.1,0.2-0.1,0.3-0.2c0.1-0.1,0.3-0.2,0.4-0.3c0.1-0.1,0.2-0.2,0.3-0.3c0.1-0.1,0.2-0.2,0.4-0.3c0.1-0.1,0.2-0.2,0.3-0.3
			c0.1-0.1,0.2-0.2,0.3-0.4c0.2-0.2,0.4-0.5,0.6-0.7C50.8,16.3,50.8,16.2,50.9,16.1z M42.6,2.1c4.5,0,8.1,3.7,8.1,8.2
			c0,0.2,0,0.3,0,0.5c0,0,0,0,0,0c-0.1,1.1-0.3,2.1-0.8,3c0,0,0,0,0,0c-0.1,0.2-0.2,0.4-0.3,0.6c0,0,0,0,0,0.1
			c-0.1,0.2-0.2,0.4-0.3,0.5c0,0-0.1,0.1-0.1,0.1c-0.1,0.2-0.2,0.3-0.4,0.5c0,0-0.1,0.1-0.1,0.1c-0.1,0.1-0.2,0.3-0.4,0.4
			c-0.1,0.1-0.1,0.1-0.2,0.2c-0.1,0.1-0.2,0.2-0.4,0.3c-0.1,0.1-0.1,0.1-0.2,0.2c-0.1,0.1-0.3,0.2-0.4,0.3c-0.1,0.1-0.2,0.1-0.2,0.2
			c-0.1,0.1-0.3,0.2-0.4,0.2c-0.1,0-0.2,0.1-0.3,0.2c-0.1,0.1-0.3,0.1-0.4,0.2c-0.1,0-0.2,0.1-0.3,0.1c-0.1,0.1-0.3,0.1-0.4,0.1
			c-0.1,0-0.2,0.1-0.3,0.1c-0.1,0-0.3,0.1-0.4,0.1c-0.1,0-0.2,0.1-0.4,0.1c-0.1,0-0.3,0-0.4,0.1c-0.1,0-0.3,0-0.4,0.1
			c0,0-0.1,0-0.1,0v0c0,0,0,0,0,0c0-0.2,0-0.4,0-0.6c0-0.1,0-0.1,0-0.2c0-0.1,0-0.3-0.1-0.4c0-0.1,0-0.1,0-0.2
			c-0.1-0.2-0.1-0.4-0.2-0.6c-0.5-0.8-1.3-1.3-2.2-1.4l-0.4,0c-0.3,0-0.5-0.2-0.6-0.4l2.2-2.2c0.4-0.4,0.4-1,0-1.5
			c-0.4-0.4-1-0.4-1.4,0L39,12.4c-0.2-0.3-0.5-0.5-0.8-0.7c-0.2-0.1-0.4-0.2-0.6-0.3c-0.1,0-0.2,0-0.2,0c-0.2,0-0.3-0.1-0.5-0.1
			c0,0,0,0-0.1,0c-0.1,0-0.2,0-0.3,0c-0.1,0-0.1,0-0.2,0c-0.2,0-0.4,0.1-0.6,0.2l-0.4,0.2c-0.1,0-0.2,0.1-0.3,0.1c0,0,0,0,0,0
			c-0.1,0-0.2,0-0.3-0.1c-0.1-0.5-0.1-1-0.1-1.5C34.5,5.7,38.1,2.1,42.6,2.1z M26,14.6l0-0.4c0-0.2,0.2-0.5,0.4-0.6
			c0.2-0.1,0.5-0.1,0.7,0l0.4,0.2c1.2,0.6,2.7,0.2,3.4-0.9l0.3-0.4c0.3-0.4,0.9-0.4,1.2,0l0.3,0.4c0.5,0.7,1.3,1.2,2.2,1.2h0
			c0.1,0,0.2,0,0.4,0c0.1,0,0.1,0,0.2,0c0.1,0,0.2,0,0.2,0c0.1,0,0.3-0.1,0.4-0.2l0.4-0.2c0.2-0.1,0.5-0.1,0.7,0
			c0.2,0.1,0.3,0.3,0.4,0.6l0,0.4c0.1,1.4,1.2,2.4,2.5,2.5l0.4,0c0.2,0,0.5,0.2,0.6,0.4c0.1,0.2,0.1,0.5,0,0.7L41,18.6
			c0,0,0,0,0,0.1c-0.4,0.8-0.3,1.8,0.1,2.5c0,0,0,0,0,0c0.1,0.1,0.1,0.2,0.2,0.3c0,0,0.1,0.1,0.1,0.1c0,0.1,0.1,0.1,0.2,0.2
			c0.1,0.1,0.2,0.2,0.3,0.3l0.4,0.3c0.2,0.1,0.3,0.4,0.3,0.6c0,0.2-0.1,0.5-0.3,0.6l-0.4,0.3c0,0,0,0,0,0c-0.1,0.1-0.3,0.2-0.4,0.3
			c0,0-0.1,0.1-0.1,0.1c-0.1,0.1-0.1,0.1-0.2,0.2c0,0,0,0.1-0.1,0.1H27.8c0.1-0.1,0.2-0.2,0.2-0.4c0,0,0,0,0,0
			c0.1-0.2,0.2-0.4,0.2-0.6c0,0,0-0.1,0-0.1c0-0.2,0.1-0.4,0.1-0.6v0c0-0.1,0-0.3,0-0.4c0-0.1,0-0.2,0-0.3c-0.1-0.3-0.2-0.6-0.4-0.8
			c-0.2-0.3-0.4-0.6-0.7-0.8l-0.4-0.3c-0.3-0.2-0.4-0.6-0.2-0.9l0.2-0.4c0.1-0.2,0.2-0.4,0.2-0.6c0-0.1,0-0.1,0-0.2
			c0-0.1,0-0.3,0-0.4c0-0.1,0-0.2,0-0.2c0-0.1,0-0.3-0.1-0.4c0-0.1,0-0.2-0.1-0.2c0-0.1,0-0.1-0.1-0.2c0,0,0-0.1-0.1-0.1
			c0-0.1,0-0.1-0.1-0.2c-0.1-0.1-0.1-0.2-0.2-0.3c-0.1-0.1-0.1-0.1-0.2-0.2c-0.1-0.1-0.3-0.3-0.4-0.4c0,0-0.1-0.1-0.1-0.1
			C25.9,15.2,26,14.9,26,14.6z M14.2,12.9c0.1-0.3,0.2-0.5,0.3-0.8l5.8-8.4c0.6-0.9,1.9-1.1,2.8-0.5C23.7,3.6,24,4.1,24,4.6
			c0.1,0.5,0,1.1-0.3,1.5l-4,5.7c0,0,0,0,0,0l-1.9,2.7c-0.3,0.4-0.8,0.7-1.3,0.8c-0.5,0.1-1.1,0-1.5-0.3c0,0,0,0,0,0
			c-0.1-0.1-0.3-0.2-0.4-0.4c0,0-0.1-0.1-0.1-0.1c-0.1-0.1-0.2-0.3-0.2-0.4c0,0,0,0,0,0c-0.1-0.2-0.1-0.3-0.1-0.5c0,0,0-0.1,0-0.1
			C14.2,13.3,14.2,13.1,14.2,12.9z M5.1,22.3l0.4-0.3c1.1-0.8,1.5-2.2,0.9-3.5l-0.2-0.4c-0.1-0.2-0.1-0.5,0-0.7
			c0.1-0.2,0.3-0.4,0.6-0.4l0.4,0c1.3-0.1,2.4-1.2,2.5-2.5l0-0.4c0-0.2,0.2-0.5,0.4-0.6c0.2-0.1,0.5-0.1,0.7,0l0.4,0.2
			c0.3,0.1,0.6,0.2,0.9,0.2c0,0,0,0,0,0.1c0,0,0,0,0,0.1c0,0.1,0.1,0.2,0.1,0.3c0,0.1,0.1,0.3,0.1,0.4c0.1,0.2,0.1,0.3,0.2,0.4
			c0,0.1,0.1,0.2,0.1,0.3c0.1,0.2,0.2,0.3,0.3,0.5c0.1,0.1,0.1,0.1,0.1,0.2c0.2,0.2,0.4,0.4,0.6,0.5c0.2,0.1,0.4,0.3,0.6,0.4
			c0.1,0,0.1,0.1,0.2,0.1c0.2,0.1,0.3,0.1,0.5,0.2c0.1,0,0.2,0,0.2,0.1c0.2,0,0.3,0.1,0.5,0.1c0.1,0,0.1,0,0.2,0c0,0,0,0,0.1,0
			c0.2,0,0.5,0,0.7-0.1c1.1-0.2,2-0.8,2.6-1.7l1.5-2.1c0.2,0.1,0.3,0.3,0.3,0.6l0,0.4c0.1,1.4,1.2,2.4,2.5,2.5l0.4,0
			c0.1,0,0.2,0,0.3,0.1c0,0,0.1,0,0.1,0.1c0.1,0,0.1,0.1,0.1,0.2c0,0,0.1,0.1,0.1,0.1c0,0.1,0.1,0.2,0.1,0.3c0,0,0,0,0,0
			c0,0.1,0,0.2-0.1,0.3l-0.2,0.4c-0.2,0.5-0.3,1-0.2,1.4c0,0,0,0,0,0c0,0.2,0,0.3,0.1,0.5c0.2,0.6,0.5,1.2,1.1,1.6l0.2,0.2l0.1,0.1
			c0.2,0.1,0.3,0.4,0.3,0.6c0,0.1,0,0.2-0.1,0.3c0,0,0,0-0.1,0.1c0,0.1-0.1,0.1-0.2,0.2l0,0l-0.3,0.2c-0.1,0.1-0.3,0.2-0.4,0.3
			c0,0-0.1,0.1-0.1,0.1c-0.1,0.1-0.2,0.2-0.2,0.3c0,0,0,0,0,0H6.2C6,24.3,5.8,24,5.5,23.8l-0.4-0.3c-0.2-0.1-0.3-0.4-0.3-0.6
			C4.8,22.7,4.9,22.5,5.1,22.3z M44.6,42.9c-1.3,0.6-2.4,1.7-3.1,3c-0.8,1.5-0.7,3.4,0.3,5c0.1,0.1,0,0.2,0,0.3
			c0,0.1-0.1,0.1-0.2,0.1H18.5c-0.1,0-0.2-0.1-0.2-0.1c0-0.1-0.1-0.2,0-0.3c0.9-1.6,1-3.5,0.3-5c-0.7-1.3-1.8-2.4-3.1-3
			C7.5,39.1,2.6,35.1,2,27.1c0-0.2,0.1-0.3,0.1-0.3c0.1-0.1,0.1-0.1,0.3-0.1h55.2c0.1,0,0.2,0.1,0.3,0.1c0,0,0.1,0.2,0.1,0.3
			C57.5,35.1,52.5,39.1,44.6,42.9z M37.5,44.1h-8.8c-0.6,0-1,0.5-1,1c0,0.6,0.5,1,1,1h8.8c0.6,0,1-0.5,1-1
			C38.5,44.6,38.1,44.1,37.5,44.1z M22.3,46.2h3.4c0.6,0,1-0.5,1-1c0-0.6-0.5-1-1-1h-3.4c-0.6,0-1,0.5-1,1
			C21.3,45.7,21.7,46.2,22.3,46.2z M37.5,47.2H22.3c-0.6,0-1,0.5-1,1c0,0.6,0.5,1,1,1h15.2c0.6,0,1-0.5,1-1
			C38.5,47.7,38.1,47.2,37.5,47.2z M40.4,9.5c0.2,0.2,0.5,0.3,0.7,0.3c0.3,0,0.5-0.1,0.7-0.3c0.4-0.4,0.4-1.1,0-1.5L39,5.2
			c-0.4-0.4-1-0.4-1.4,0c-0.4,0.4-0.4,1,0,1.5L40.4,9.5z M46.2,15.3c0.2,0.2,0.5,0.3,0.7,0.3c0.3,0,0.5-0.1,0.7-0.3
			c0.4-0.4,0.4-1,0-1.5L44.7,11c-0.4-0.4-1-0.4-1.4,0c-0.4,0.4-0.4,1,0,1.5L46.2,15.3z M44,9.8c0.3,0,0.5-0.1,0.7-0.3l2.9-2.9
			c0.4-0.4,0.4-1,0-1.5c-0.4-0.4-1-0.4-1.4,0l-2.9,2.9c-0.4,0.4-0.4,1,0,1.5C43.5,9.7,43.7,9.8,44,9.8z M49.7,18.5c0,0.6,0.5,1,1,1
			h4.1c0.6,0,1-0.5,1-1s-0.5-1-1-1h-4.1C50.1,17.4,49.7,17.9,49.7,18.5z M30.9,19c0.3,0,0.5-0.1,0.7-0.3l1.5-1.5
			c0.4-0.4,0.4-1,0-1.5c-0.4-0.4-1-0.4-1.4,0l-1.5,1.5c-0.4,0.4-0.4,1,0,1.5C30.4,18.9,30.7,19,30.9,19z M35.8,21.2
			c0.2,0.2,0.5,0.3,0.7,0.3c0.3,0,0.5-0.1,0.7-0.3c0.4-0.4,0.4-1,0-1.5l-1-1c-0.4-0.4-1-0.4-1.4,0c-0.4,0.4-0.4,1,0,1.5L35.8,21.2z
			 M31.7,20.8l-1,1c-0.4,0.4-0.4,1,0,1.5c0.2,0.2,0.5,0.3,0.7,0.3s0.5-0.1,0.7-0.3l1-1c0.4-0.4,0.4-1,0-1.5
			C32.8,20.4,32.1,20.4,31.7,20.8z"/>
	</g>
</g>
</svg>
